<?xml version="1.0" encoding="UTF-8"?> <svg xmlns="http://www.w3.org/2000/svg" viewBox="0 0 92 19" fill="none"><path d="M34.253 2.209c.763 0 1.46.161 2.092.484a3.606 3.606 0 0 1 1.52 1.322 3.38 3.38 0 0 1 .573 1.916c0 1.865-.845 3.04-2.533 3.525v.088c1.923.44 2.885 1.703 2.885 3.788 0 .793-.198 1.498-.594 2.115a3.895 3.895 0 0 1-1.587 1.41 4.905 4.905 0 0 1-2.224.506h-10.22V2.21h10.088Zm-5.22 5.903h3.347c.323 0 .588-.11.793-.33.22-.235.33-.522.33-.86v-.22c0-.323-.11-.594-.33-.815a1.049 1.049 0 0 0-.793-.352h-3.348v2.577Zm0 5.727h3.7c.323 0 .587-.11.793-.33.22-.235.33-.522.33-.86v-.22c0-.337-.11-.616-.33-.837a1.006 1.006 0 0 0-.793-.352h-3.7v2.6ZM48.842 1.944c2.614 0 4.633.668 6.057 2.005 1.425 1.336 2.137 3.282 2.137 5.837 0 2.555-.712 4.501-2.137 5.837-1.424 1.337-3.443 2.005-6.057 2.005-2.614 0-4.633-.661-6.058-1.983-1.41-1.336-2.114-3.289-2.114-5.859s.704-4.516 2.114-5.837c1.425-1.337 3.444-2.005 6.058-2.005Zm0 3.635c-1.043 0-1.836.316-2.38.947-.543.631-.814 1.483-.814 2.555v1.41c0 1.072.271 1.924.815 2.555.543.632 1.336.947 2.379.947 1.042 0 1.835-.315 2.379-.947.558-.631.837-1.483.837-2.555v-1.41c0-1.072-.28-1.924-.837-2.555-.544-.631-1.337-.947-2.38-.947ZM70.495 17.363l-6.366-7.357v7.357h-4.472V2.21h4.252l6.366 7.467V2.209h4.471v15.154h-4.251ZM78.006 2.209h13.107v3.634h-8.239v2.093h7.05v3.48h-7.05v2.313h8.393v3.634h-13.26V2.21ZM13.208 18.59c.754 0 1.509-.302 2.037-.829.604-.602.905-1.505.83-2.333.83.075 1.735-.226 2.339-.828a2.858 2.858 0 0 0 0-4.065c-.981-.979-2.716-1.13-3.848-.226l-5.281-5.27c.452-.526.603-1.128.603-1.806 0-.753-.302-1.506-.83-2.032C7.927.147 6.04.147 4.984 1.2c-.603.602-.905 1.505-.83 2.333-.83-.075-1.735.226-2.339.828a2.905 2.905 0 0 0 0 4.065c.981.979 2.717 1.13 3.848.226l5.281 5.27a2.88 2.88 0 0 0 .227 3.838c.528.527 1.207.828 2.037.828Z" fill="#6D7D8A"></path></svg> 