<?xml version="1.0" encoding="UTF-8"?> <svg xmlns="http://www.w3.org/2000/svg" viewBox="0 0 115 19" fill="none"><path d="M48 1.396h4.846c1.254 0 2.195.33 2.822.989.627.659.947 1.635.96 2.927l.042 7.792c.013 1.642-.287 2.876-.9 3.703s-1.629 1.24-3.047 1.24H48V1.397Zm4.15 13.705c.642 0 .962-.297.962-.892V5.622c0-.375-.034-.653-.102-.833-.055-.194-.164-.324-.328-.388-.163-.065-.415-.097-.756-.097h-.389V15.1h.614ZM62.276 18.202c-1.418 0-2.495-.407-3.231-1.22-.736-.828-1.104-1.984-1.104-3.47V5.582c0-1.434.368-2.513 1.104-3.237.736-.736 1.813-1.105 3.23-1.105 1.418 0 2.495.369 3.231 1.105.736.724 1.104 1.803 1.104 3.237v7.928c0 1.5-.368 2.656-1.104 3.47-.736.814-1.813 1.221-3.23 1.221Zm0-3.062c.313 0 .524-.13.633-.388.11-.258.164-.62.164-1.086v-8.14c0-.363-.054-.653-.163-.873-.096-.233-.3-.35-.614-.35-.586 0-.88.42-.88 1.26v8.123c0 .478.062.84.185 1.085.123.246.347.369.675.369ZM71.647 18.202c-1.268 0-2.215-.42-2.842-1.26-.613-.852-.92-2.138-.92-3.857V5.913c0-1.538.361-2.701 1.084-3.49.722-.788 1.799-1.182 3.23-1.182 1.159 0 2.059.22 2.7.66.64.439 1.083 1.078 1.328 1.918.246.84.368 1.92.368 3.237H73.16V5.564c0-.4-.061-.71-.184-.93-.109-.22-.313-.33-.613-.33-.668 0-1.002.413-1.002 1.24v8.064c0 .504.068.886.204 1.144.137.258.375.388.716.388.34 0 .58-.13.716-.388s.204-.64.204-1.144v-2.384h-.94V8.355h4.294v9.692h-1.411l-.593-1.395c-.627 1.034-1.595 1.55-2.904 1.55ZM80.733 18.241c-1.05 0-1.847-.355-2.392-1.066-.546-.71-.818-1.635-.818-2.772 0-1.266.19-2.28.572-3.043.382-.776.982-1.454 1.8-2.036-.668-1.24-1.002-2.313-1.002-3.217 0-.944.32-1.68.96-2.21.655-.543 1.493-.814 2.516-.814 1.008 0 1.833.258 2.474.775.654.504.981 1.215.981 2.132 0 1.344-.783 2.604-2.351 3.78l.634 1.415c.382-.956.954-1.699 1.717-2.229l1.39 2.055c-.803.594-1.458 1.577-1.962 2.946l1.779 4.09h-3.395l-.367-.91a3.28 3.28 0 0 1-1.105.794 3.3 3.3 0 0 1-1.431.31Zm2.004-10.874c.136-.143.259-.343.368-.601a2.08 2.08 0 0 0 .163-.776c0-.387-.197-.581-.593-.581a.476.476 0 0 0-.388.174.576.576 0 0 0-.143.407c0 .336.143.853.43 1.551l.163-.174Zm-1.452 8.451a.88.88 0 0 0 .654-.271 1.42 1.42 0 0 0 .348-.66l-1.206-2.752-.123.175c-.11.155-.198.4-.266.736a4.962 4.962 0 0 0-.102.989v.097c0 .504.04.91.123 1.221.081.31.272.465.572.465ZM92.365 18.202c-1.281 0-2.31-.38-3.087-1.143-.764-.763-1.146-1.81-1.146-3.14V6.242c0-1.654.348-2.9 1.043-3.74.696-.84 1.786-1.26 3.272-1.26 1.295 0 2.338.335 3.128 1.007.791.672 1.186 1.641 1.186 2.908v2.869h-3.496V5.564c0-.478-.061-.808-.184-.989-.123-.18-.334-.271-.634-.271-.314 0-.532.103-.654.31-.11.207-.164.51-.164.911v8.355c0 .44.068.762.204.969.137.194.341.29.614.29.545 0 .818-.42.818-1.26v-3.004h3.537v3.14c0 2.792-1.479 4.187-4.437 4.187ZM97.49 18.047l1.697-16.65h5.95l1.677 16.65h-3.333l-.245-2.694h-2.127l-.204 2.694H97.49Zm3.885-5.35h1.595l-.777-8.47h-.164l-.654 8.47ZM109.397 18.047V4.595h-2.085V1.396H115v3.199h-2.086v13.452h-3.517ZM12.167 8.155c-.083 0-.167.083-.167.166 0 .166.334.166.334 0 0-.083-.084-.166-.167-.166Z" fill="#6D7D8A"></path><path d="M8.334 7.92c.333 0 .666.33.666.66s-.333.661-.666.661c-.334 0-.667-.33-.667-.66s.25-.661.667-.661Zm3.083 3.55h-1c-.167 0-.25-.082-.417-.082-.083.082-.25.082-.416.082h-1c-.417 0-.834-.33-.834-.825 0-.248.167-.413.417-.413.25 0 .417.165.417.413h1v-.083l-.25-.248c-.084-.082-.167-.33-.084-.412a.459.459 0 0 1 .417-.248h.667c.166 0 .333.082.416.248.084.165 0 .33-.083.412l-.25.248v.083h1c0-.248.167-.413.417-.413.25 0 .416.165.416.413 0 .412-.416.825-.833.825Zm.25-2.229c-.333 0-.667-.33-.667-.66s.334-.661.667-.661.667.33.667.66-.25.661-.667.661Z" fill="#6D7D8A"></path><path d="M14.083.241c-1.583 0-3 .578-4.083 1.486C8.917.737 7.417.241 5.917.241 2.667.241 0 2.636 0 5.608c0 1.074.333 2.147 1.083 3.055l.084.083.083.082 7.583 8.835c.334.33.75.578 1.25.578s.917-.165 1.25-.578l7.5-8.835.167-.165v-.082c.667-.909 1-1.982 1-3.055C20 2.636 17.333.24 14.083.24Zm.334 6.358c.166.413.166.826.166 1.156v1.651a3.805 3.805 0 0 1-3.833 3.798H9.083c-2.083 0-3.833-1.65-3.833-3.798V7.755c0-.413.083-.826.167-1.156-1.5.083-3.334-.33-3.334-1.321 0-.908 1.5-1.321 3-1.321.917 0 1.75.165 2.25.413A3.821 3.821 0 0 1 9 3.957h1.667c.583 0 1.166.165 1.666.413.5-.248 1.334-.413 2.25-.413 1.417 0 3 .413 3 1.32C17.75 6.27 16 6.683 14.417 6.6Z" fill="#6D7D8A"></path><path d="M8.5 8.582c0-.083-.083-.166-.166-.166-.084 0-.167.083-.167.166 0 .166.334.166.334 0ZM33.597 10.017c-.085 0-.17.073-.17.147 0 .148.339.148.339 0 0-.074-.085-.147-.17-.147ZM35.2 5.535l-1.266.735c.507.147 1.014.367 1.351.661l-.084-1.396ZM29.797 6.27l-1.267-.735v1.396c.338-.294.845-.514 1.267-.661ZM30.22 10.017c-.085 0-.17.073-.17.147 0 .148.338.148.338 0 0-.074-.084-.147-.169-.147Z" fill="#6D7D8A"></path><path d="M36.045 2.743c-1.604 0-3.04.514-4.137 1.323-1.098-.882-2.618-1.323-4.137-1.323-3.293 0-5.995 2.13-5.995 4.776 0 .955.337 1.91 1.097 2.718l.085.073.084.074 7.684 7.86c.338.295.76.515 1.266.515.507 0 .93-.147 1.267-.514l7.6-7.861.168-.147v-.074c.675-.808 1.013-1.763 1.013-2.718 0-2.571-2.702-4.702-5.995-4.702Zm.591 8.155c0 1.837-1.688 3.38-3.884 3.38h-1.688c-2.111 0-3.884-1.47-3.884-3.38v-1.47c0-.514.168-1.028.422-1.469L27.77 4.8c0-.147.084-.22.253-.294.169-.073.338-.073.422 0l2.618 1.543h1.688l2.533-1.543c.085-.073.254-.073.423 0 .168.074.253.147.253.294l.169 3.16c.253.44.422.954.422 1.469v1.47h.084Z" fill="#6D7D8A"></path><path d="M30.22 10.752c-.338 0-.676-.294-.676-.588s.338-.588.675-.588c.338 0 .676.294.676.588s-.338.588-.676.588Zm2.364.955-.338.294c-.085.073-.169.073-.338.073s-.253-.073-.338-.073l-.337-.294c-.085-.074-.17-.294-.085-.368a.478.478 0 0 1 .422-.22h.676c.169 0 .338.074.422.22 0 .074 0 .22-.084.368Zm1.013-.955c-.338 0-.676-.294-.676-.588s.338-.588.676-.588.675.294.675.588-.253.588-.675.588Z" fill="#6D7D8A"></path></svg> 