<?xml version="1.0" encoding="UTF-8"?> <svg xmlns="http://www.w3.org/2000/svg" viewBox="0 0 103 23" fill="none"><path d="M13.118 18.281H8.799c-.166 0-.25-.083-.332-.166-.083-.082-.083-.248-.083-.331l.498-2.237c-4.568-.912-7.89-4.972-7.89-9.695 0-.249.167-.414.416-.414h6.81V2.703A2.23 2.23 0 0 1 10.46.466h1.163a2.23 2.23 0 0 1 2.242 2.237v2.735h6.81c.25 0 .415.165.415.414 0 4.723-3.322 8.783-7.89 9.695l.499 2.237c0 .083 0 .248-.083.331-.25.166-.415.166-.498.166Zm-3.82-.828h3.321l-.498-2.155c0-.083 0-.248.083-.331.083-.083.166-.166.25-.166 4.318-.746 7.474-4.309 7.64-8.618h-6.727c-.25 0-.415-.165-.415-.414V2.703c0-.746-.665-1.409-1.412-1.409h-1.163c-.747 0-1.412.663-1.412 1.41v3.148c0 .248-.166.414-.415.414H1.823c.166 4.309 3.322 7.872 7.64 8.618.084 0 .25.083.25.165.083.083.083.25.083.332l-.499 2.072Z" fill="#6D7D8A"></path><path d="M12.038 12.978c-.166 0-.415-.166-.415-.332 0-.248.083-.414.332-.497 3.156-.497 5.398-3.148 5.398-6.297 0-.249.166-.415.416-.415.249 0 .415.166.415.415 0 3.563-2.492 6.546-6.146 7.126.083 0 .083 0 0 0ZM9.879 12.978c-.083 0-.083 0 0 0-3.571-.58-6.146-3.563-6.146-7.126 0-.249.166-.415.415-.415.25 0 .416.166.416.415 0 3.149 2.242 5.8 5.398 6.297.249 0 .415.249.332.498-.083.165-.25.33-.415.33ZM8.55 8.835c-.25 0-.415-.166-.415-.415V5.272c0-.249.166-.415.415-.415.25 0 .415.166.415.415V8.42c0 .25-.166.415-.415.415ZM13.367 8.835c-.25 0-.415-.166-.415-.415V5.272c0-.249.166-.415.415-.415.25 0 .415.166.415.415V8.42c0 .25-.249.415-.415.415ZM10.544 3.616a.664.664 0 1 0 .001-1.328.664.664 0 0 0-.001 1.328Z" fill="#6D7D8A"></path><path d="M8.55 4.858c-.083 0-.166 0-.166-.083L6.058 3.532a.456.456 0 0 1-.249-.414c0-.166.083-.332.25-.332l2.325-1.243c.166-.083.415 0 .581.166.166.166 0 .414-.166.58L7.138 3.2l1.661.912c.166.083.25.331.166.58a.635.635 0 0 1-.415.166ZM27.08 6.618h5.565v-.942h-5.566v.942Zm0 5.348h5.383v-.943H27.08v.943Zm-.526-6.29v12.69h.997V5.675h-.997ZM35.173 4.226v14.14h.943V4.225h-.943ZM45.342 10.026H44.29l-2.954 7.07.435.036-3.028-7.106H37.62l3.371 7.487-2.139 4.84h1.052l5.438-12.327ZM46.84 6.256c0 .181.066.338.198.471.133.133.29.2.472.2.193 0 .35-.067.471-.2.133-.133.2-.29.2-.471a.607.607 0 0 0-.2-.471.607.607 0 0 0-.471-.2.644.644 0 0 0-.471.2.607.607 0 0 0-.2.47Zm.198 3.77v8.34h.943v-8.34h-.943ZM56.4 13v5.365h.943v-5.474c0-.931-.23-1.668-.69-2.212-.459-.556-1.123-.834-1.993-.834-.617 0-1.16.17-1.632.508-.459.338-.803.81-1.033 1.414v-1.74h-.943v8.338h.943V13.29c0-.483.103-.918.308-1.305a2.415 2.415 0 0 1 2.14-1.25c.676 0 1.171.199 1.486.598.314.398.471.954.471 1.667ZM59.679 18.909c0 .713.163 1.341.49 1.885.326.556.779.985 1.359 1.287.592.302 1.269.454 2.03.454.701 0 1.354-.164 1.958-.49.604-.326 1.094-.816 1.468-1.468.375-.64.562-1.438.562-2.393v-8.158h-.942v8.158c0 .797-.151 1.45-.454 1.958-.29.52-.664.9-1.123 1.142-.46.241-.95.362-1.469.362-.58 0-1.093-.12-1.54-.362a2.637 2.637 0 0 1-1.016-.98 2.701 2.701 0 0 1-.362-1.395h-.961Zm-.2-4.713c0 .894.182 1.668.544 2.32a3.864 3.864 0 0 0 1.45 1.505c.617.35 1.294.525 2.03.525.726 0 1.348-.187 1.868-.562.52-.386.925-.906 1.215-1.559.302-.664.453-1.407.453-2.23 0-.833-.151-1.576-.453-2.229-.29-.652-.695-1.166-1.215-1.54-.52-.387-1.142-.58-1.867-.58-.737 0-1.414.174-2.03.525a3.864 3.864 0 0 0-1.45 1.504c-.363.64-.544 1.414-.544 2.32Zm.961 0c0-.725.14-1.348.417-1.867.29-.52.677-.913 1.16-1.179a3.244 3.244 0 0 1 1.614-.417c.386 0 .755.091 1.106.272.362.17.682.411.96.725.29.315.514.677.671 1.088.157.411.236.858.236 1.341 0 .677-.14 1.281-.417 1.813-.278.52-.647.93-1.106 1.233a2.54 2.54 0 0 1-1.45.453c-.58 0-1.118-.133-1.614-.399a3.071 3.071 0 0 1-1.16-1.196c-.278-.52-.417-1.142-.417-1.867ZM76.618 11.55h2.048c.713 0 1.342-.104 1.886-.309.543-.218.966-.532 1.268-.943.315-.423.472-.942.472-1.559 0-.676-.151-1.238-.454-1.686-.302-.459-.73-.803-1.286-1.033-.544-.23-1.197-.344-1.958-.344h-2.756v12.69h2.937c.822 0 1.547-.134 2.175-.4a3.262 3.262 0 0 0 1.505-1.214c.362-.544.544-1.233.544-2.067 0-.58-.121-1.081-.363-1.504a2.98 2.98 0 0 0-.942-1.07 4.034 4.034 0 0 0-1.324-.616 5.39 5.39 0 0 0-1.523-.218h-2.23v.58h2.158c.435 0 .84.06 1.215.182.386.12.73.302 1.033.543.302.23.538.52.707.87.169.339.254.732.254 1.179 0 .628-.133 1.154-.4 1.577-.265.41-.64.725-1.123.943-.484.217-1.046.326-1.686.326h-1.94V6.564h1.759c.822 0 1.474.2 1.958.598.495.387.743.93.743 1.632 0 .495-.121.906-.363 1.232-.242.315-.568.55-.979.707-.41.157-.864.236-1.36.236h-1.975v.58ZM85.413 6.256c0 .181.067.338.2.471.133.133.29.2.471.2.193 0 .35-.067.471-.2.133-.133.2-.29.2-.471a.607.607 0 0 0-.2-.471.607.607 0 0 0-.47-.2.645.645 0 0 0-.472.2.607.607 0 0 0-.2.47Zm.2 3.77v8.34h.942v-8.34h-.942ZM90.57 10.026h-.943v8.34h.942v-8.34Zm2.773 1.106.525-.78a1.63 1.63 0 0 0-.652-.38 2.134 2.134 0 0 0-.743-.127c-.435 0-.834.151-1.197.453-.35.303-.628.713-.834 1.233-.205.508-.308 1.094-.308 1.758h.435c0-.47.055-.9.163-1.287.11-.386.284-.695.526-.924.254-.23.586-.345.997-.345.218 0 .405.037.562.11.17.06.345.156.526.29ZM101.868 4.226v14.14h.942V4.225h-.942Zm-7.125 9.97c0 .894.182 1.668.544 2.32a3.865 3.865 0 0 0 1.45 1.505c.617.35 1.294.525 2.03.525.726 0 1.348-.187 1.868-.562.52-.386.924-.906 1.214-1.559.303-.664.454-1.407.454-2.23 0-.833-.151-1.576-.454-2.229-.29-.652-.694-1.166-1.214-1.54-.52-.387-1.142-.58-1.867-.58-.737 0-1.414.174-2.03.525a3.865 3.865 0 0 0-1.45 1.504c-.363.64-.545 1.414-.545 2.32Zm.961 0c0-.725.14-1.348.417-1.867.29-.52.677-.913 1.16-1.179a3.243 3.243 0 0 1 1.614-.417c.52 0 1.003.151 1.45.454.459.302.828.713 1.106 1.232.278.52.417 1.112.417 1.777 0 .665-.139 1.257-.417 1.776-.278.52-.647.93-1.106 1.233-.447.302-.93.453-1.45.453-.58 0-1.118-.133-1.614-.399a3.07 3.07 0 0 1-1.16-1.196c-.278-.52-.417-1.142-.417-1.867Z" fill="#6D7D8A"></path></svg> 