<?xml version="1.0" encoding="UTF-8"?> <svg xmlns="http://www.w3.org/2000/svg" viewBox="0 0 95 31" fill="none"><path fill-rule="evenodd" clip-rule="evenodd" d="M10.809 16.889a6.493 6.493 0 0 0-3.78.095 6.476 6.476 0 0 0-3.562 2.897 6.72 6.72 0 0 0-.658 1.628 6.52 6.52 0 0 0 4.964-.645 6.5 6.5 0 0 0 3.036-3.975Zm1.246-.715.43-1.002a8.68 8.68 0 0 0-6.146-.255 8.658 8.658 0 0 0-4.766 3.88l-.002.003-.002.004a8.893 8.893 0 0 0-1.09 3.292l-.101.817.76.32a8.706 8.706 0 0 0 10.623-3.204 8.657 8.657 0 0 0 1.378-3.722l-1.084-.133ZM22.745 8.782a6.487 6.487 0 0 0-4.307 1.624 6.462 6.462 0 0 0-1.978 3.223 6.493 6.493 0 0 0 3.782-.094 6.476 6.476 0 0 0 3.563-2.898 6.72 6.72 0 0 0 .657-1.627 6.532 6.532 0 0 0-1.714-.228l-.001-1.09-.002 1.09Zm.002-2.178a8.674 8.674 0 0 0-5.756 2.171 8.637 8.637 0 0 0-2.859 5.44l-.097.81.752.321a8.68 8.68 0 0 0 6.145.256 8.658 8.658 0 0 0 4.766-3.88l.002-.004.003-.004a8.896 8.896 0 0 0 1.09-3.291l.1-.818-.76-.32a8.72 8.72 0 0 0-3.386-.681Z" fill="#6D7D8A"></path><path fill-rule="evenodd" clip-rule="evenodd" d="M13.636 18.507a6.465 6.465 0 0 0-1.074 7.868c.294.505.655.967 1.074 1.372a6.4 6.4 0 0 0 1.074-1.372 6.465 6.465 0 0 0-1.074-7.868Zm0-1.432-.655-.872a8.639 8.639 0 0 0-2.31 11.263l.002.002a8.585 8.585 0 0 0 2.313 2.58l.65.482.65-.481a8.583 8.583 0 0 0 2.312-2.58l.001-.003a8.638 8.638 0 0 0-2.309-11.263l-.654.872Z" fill="#6D7D8A"></path><path fill-rule="evenodd" clip-rule="evenodd" d="M16.462 16.889a6.483 6.483 0 0 0 3.036 3.975 6.518 6.518 0 0 0 4.964.645 6.722 6.722 0 0 0-.658-1.628 6.476 6.476 0 0 0-3.562-2.897 6.493 6.493 0 0 0-3.78-.095Zm8.29 2.452.946-.545a8.658 8.658 0 0 0-4.766-3.879 8.68 8.68 0 0 0-6.146.255l-.754.322.1.813a8.657 8.657 0 0 0 4.273 6.442 8.703 8.703 0 0 0 7.728.484l.76-.32-.101-.817a8.895 8.895 0 0 0-1.09-3.292l-.95.537ZM8.827 10.398a6.488 6.488 0 0 0-4.3-1.616l-.003-1.09v1.09c-.58 0-1.158.076-1.715.228a6.72 6.72 0 0 0 .657 1.626 6.476 6.476 0 0 0 3.566 2.883 6.493 6.493 0 0 0 3.777.086 6.462 6.462 0 0 0-1.982-3.207ZM4.524 6.604a8.72 8.72 0 0 0-3.385.681l-.761.32.101.818a8.894 8.894 0 0 0 1.09 3.291l.003.006.003.005a8.658 8.658 0 0 0 4.773 3.862 8.68 8.68 0 0 0 6.139-.268l.752-.323-.1-.811a8.636 8.636 0 0 0-2.868-5.421 8.674 8.674 0 0 0-5.747-2.16Z" fill="#6D7D8A"></path><path fill-rule="evenodd" clip-rule="evenodd" d="M13.636 2.772a6.4 6.4 0 0 0-1.075 1.373 6.465 6.465 0 0 0 1.075 7.867 6.465 6.465 0 0 0 1.075-7.868 6.4 6.4 0 0 0-1.075-1.372Zm0-1.426-.65-.875a8.584 8.584 0 0 0-2.313 2.58l-.001.002a8.639 8.639 0 0 0 2.31 11.263l.654.489.654-.489A8.638 8.638 0 0 0 16.6 3.053l-.002-.002a8.583 8.583 0 0 0-2.312-2.58l-.65.875Z" fill="#6D7D8A"></path><path d="M36.01 12.666v-9.11c0-.19.066-.354.198-.49a.645.645 0 0 1 .483-.206h2.15c.172 0 .352.069.542.205.19.137.347.3.469.49l4.42 6.799V3.54c0-.19.066-.351.197-.483a.682.682 0 0 1 .49-.198h1.26c.19 0 .35.066.482.198a.662.662 0 0 1 .205.498v9.11c0 .19-.068.354-.205.49a.657.657 0 0 1-.483.198h-2.43c-.19 0-.385-.066-.585-.197-.2-.137-.358-.3-.475-.49l-4.047-6.28v6.28c0 .19-.068.353-.205.49a.657.657 0 0 1-.483.197h-1.288a.682.682 0 0 1-.49-.197.669.669 0 0 1-.205-.49ZM49.372 12.827c-.644-.448-.965-1.083-.965-1.902 0-.82.322-1.45.965-1.888.65-.44 1.483-.659 2.503-.659h2.422c0-.57-.12-.968-.358-1.193-.24-.224-.659-.336-1.259-.336-.595 0-1.015.148-1.258.446-.24.293-.535.44-.886.44h-1.09a.46.46 0 0 1-.33-.125.452.452 0 0 1-.124-.322c0-1.4 1.33-2.1 3.988-2.1 1.161 0 2.093.26 2.796.782.702.518 1.053 1.32 1.053 2.408v4.53a.436.436 0 0 1-.124.322.436.436 0 0 1-.322.124h-1.412a.436.436 0 0 1-.322-.124.451.451 0 0 1-.125-.322v-.227c-.77.551-1.66.825-2.67.82-1.006 0-1.833-.225-2.482-.674Zm2.679-2.788c-.342 0-.613.083-.813.25a.806.806 0 0 0-.292.643c0 .263.102.48.307.651.205.171.495.256.871.256.751 0 1.476-.22 2.173-.658v-1.142h-2.246ZM62.457 11.766l1.002-.088h.271a.435.435 0 0 1 .454.447v.783a.406.406 0 0 1-.132.293.556.556 0 0 1-.322.153c-.497.098-1.146.147-1.946.147-2.098 0-3.147-1.098-3.147-3.293V3.314a.436.436 0 0 1 .446-.454h1.64c.126 0 .231.044.314.132.088.083.132.19.132.322v2.444h2.042c.127 0 .231.042.314.125.088.083.132.19.132.322v.87c0 .132-.044.24-.132.322a.426.426 0 0 1-.314.125h-2.042v2.686c0 .497.117.883.351 1.156.234.268.547.402.937.402ZM65.31 9.98V5.789a.436.436 0 0 1 .447-.454h1.64c.126 0 .231.044.314.132.088.082.132.19.132.322V9.98c0 1.17.463 1.756 1.39 1.756.61 0 1.266-.351 1.969-1.054V5.788a.436.436 0 0 1 .446-.454h1.632c.132 0 .24.044.322.132.088.082.132.19.132.322v7.12a.438.438 0 0 1-.454.446h-1.632a.452.452 0 0 1-.322-.124.452.452 0 0 1-.124-.322v-.468c-.84.707-1.734 1.06-2.686 1.06-.946 0-1.717-.287-2.312-.863-.595-.58-.893-1.466-.893-2.656ZM81.088 7.193l-1.127-.044c-.658 0-1.287.36-1.888 1.083v4.676a.423.423 0 0 1-.131.322.427.427 0 0 1-.315.124h-1.64a.436.436 0 0 1-.321-.124.436.436 0 0 1-.125-.322v-7.12a.435.435 0 0 1 .447-.454h1.639a.436.436 0 0 1 .446.454v.46a6.101 6.101 0 0 1 1.435-.797c.463-.176 1.068-.264 1.815-.264.131 0 .239.044.322.132a.414.414 0 0 1 .131.315v1.112a.436.436 0 0 1-.454.446h-.234ZM83.196 12.827c-.644-.448-.966-1.083-.966-1.902 0-.82.322-1.45.966-1.888.649-.44 1.483-.659 2.503-.659h2.422c0-.57-.12-.968-.359-1.193-.239-.224-.658-.336-1.258-.336-.596 0-1.015.148-1.259.446-.24.293-.534.44-.886.44h-1.09a.46.46 0 0 1-.33-.125.452.452 0 0 1-.124-.322c0-1.4 1.33-2.1 3.989-2.1 1.16 0 2.093.26 2.795.782.703.518 1.054 1.32 1.054 2.408v4.53a.436.436 0 0 1-.125.322.436.436 0 0 1-.322.124h-1.412a.436.436 0 0 1-.322-.124.451.451 0 0 1-.124-.322v-.227c-.771.551-1.661.825-2.671.82-1.005 0-1.832-.225-2.481-.674Zm2.678-2.788c-.341 0-.612.083-.812.25a.806.806 0 0 0-.293.643c0 .263.103.48.308.651.204.171.495.256.87.256.752 0 1.476-.22 2.174-.658v-1.142h-2.247ZM92.46 12.908V3.314a.436.436 0 0 1 .447-.454h1.64c.126 0 .23.044.314.132.087.083.131.19.131.322v9.594a.438.438 0 0 1-.446.446h-1.64a.452.452 0 0 1-.321-.124.452.452 0 0 1-.125-.322ZM36.01 27.255v-9.111c0-.19.068-.351.205-.483a.682.682 0 0 1 .49-.198h8.438c.19 0 .35.069.483.205.136.137.205.3.205.49v.688c0 .19-.069.354-.205.49a.657.657 0 0 1-.483.198h-6.374v2.576h5.188c.19 0 .351.068.483.205a.66.66 0 0 1 .205.483v.695c0 .19-.068.354-.205.49a.657.657 0 0 1-.483.198H38.77v3.074c0 .2-.069.368-.205.505a.657.657 0 0 1-.483.197h-1.376a.686.686 0 0 1-.695-.703ZM47.133 27.05c-.76-.703-1.141-1.737-1.141-3.103 0-1.371.38-2.405 1.141-3.103.761-.702 1.854-1.054 3.279-1.054 1.429 0 2.524.352 3.285 1.054.761.698 1.142 1.732 1.142 3.103 0 1.366-.38 2.4-1.142 3.103-.76.702-1.856 1.053-3.285 1.053-1.425 0-2.518-.35-3.279-1.053Zm1.852-5.006c-.303.395-.454 1.027-.454 1.896 0 .868.151 1.502.454 1.902.302.4.778.6 1.427.6.653 0 1.131-.2 1.434-.6.307-.4.46-1.034.46-1.902 0-.869-.153-1.5-.46-1.896-.303-.395-.78-.593-1.434-.593-.65 0-1.125.198-1.427.593ZM56.88 27.05c-.76-.703-1.141-1.737-1.141-3.103 0-1.371.38-2.405 1.142-3.103.76-.702 1.853-1.054 3.278-1.054 1.43 0 2.525.352 3.286 1.054.76.698 1.141 1.732 1.141 3.103 0 1.366-.38 2.4-1.141 3.103-.761.702-1.856 1.053-3.286 1.053-1.425 0-2.517-.35-3.278-1.053Zm1.852-5.006c-.302.395-.454 1.027-.454 1.896 0 .868.152 1.502.454 1.902.303.4.778.6 1.427.6.654 0 1.132-.2 1.434-.6.308-.4.461-1.034.461-1.902 0-.869-.153-1.5-.46-1.896-.303-.395-.781-.593-1.435-.593-.649 0-1.124.198-1.427.593ZM69.072 28.104c-1.02 0-1.873-.36-2.561-1.076-.683-.717-1.024-1.744-1.024-3.081 0-1.342.353-2.369 1.06-3.081.713-.717 1.67-1.076 2.87-1.076.619 0 1.324.125 2.114.373v-2.246a.436.436 0 0 1 .447-.454h1.631c.132 0 .24.044.322.132.088.083.132.19.132.322v9.594a.438.438 0 0 1-.454.446h-1.405a.436.436 0 0 1-.322-.124.452.452 0 0 1-.124-.322v-.227c-.77.546-1.666.82-2.686.82Zm.871-6.543c-.673 0-1.149.19-1.427.571-.278.376-.417.98-.417 1.815 0 .834.132 1.442.395 1.822.264.38.659.57 1.186.57.531 0 1.149-.219 1.851-.658v-3.827c-.63-.195-1.159-.293-1.588-.293ZM75.41 22.154c0-1.576 1.27-2.364 3.812-2.364 2.674 0 4.01.7 4.01 2.1a.451.451 0 0 1-.124.322.435.435 0 0 1-.322.125h-1.09c-.352 0-.647-.146-.886-.44-.239-.297-.71-.445-1.412-.445-.966 0-1.449.234-1.449.702 0 .22.188.402.564.549.38.146.841.276 1.382.388.547.107 1.09.246 1.632.417.542.17 1 .444 1.376.82.38.37.571.841.571 1.412 0 1.576-1.342 2.364-4.025 2.364-2.683 0-4.025-.698-4.025-2.093a.436.436 0 0 1 .454-.454h1.09c.352 0 .647.149.886.446.239.293.71.44 1.412.44 1.117 0 1.676-.235 1.676-.703 0-.22-.19-.403-.57-.55a8.67 8.67 0 0 0-1.384-.387 19.576 19.576 0 0 1-1.632-.424 3.387 3.387 0 0 1-1.376-.82c-.38-.376-.57-.844-.57-1.405Z" fill="#6D7D8A"></path></svg> 