<?xml version="1.0" encoding="UTF-8"?> <svg xmlns="http://www.w3.org/2000/svg" viewBox="0 0 96 35" fill="none"><path d="M14.215 33.686c-.425.177-.853.337-1.283.478-.431.142-.877.263-1.337.363-.46.106-.947.186-1.46.239-.508.053-1.054.08-1.638.08-1.239 0-2.38-.133-3.425-.399-1.039-.265-1.936-.664-2.691-1.195a5.697 5.697 0 0 1-1.753-2C.21 30.45 0 29.514 0 28.446s.21-2 .628-2.797a5.596 5.596 0 0 1 1.753-2c.755-.537 1.652-.938 2.69-1.204 1.045-.265 2.187-.398 3.426-.398.584 0 1.13.026 1.638.08.513.053 1 .132 1.46.239.46.1.906.22 1.337.362.43.142.858.301 1.283.478v2.957c-.336-.183-.69-.363-1.062-.54a8.77 8.77 0 0 0-1.23-.487 9.873 9.873 0 0 0-1.479-.354 10.54 10.54 0 0 0-1.814-.142c-1.033 0-1.891.107-2.576.319-.678.212-1.221.496-1.628.85a2.916 2.916 0 0 0-.859 1.221 4.112 4.112 0 0 0-.248 1.416c0 .325.036.646.106.965.071.313.19.61.354.894.166.277.381.534.647.77.265.236.596.44.99.61.396.172.857.308 1.382.408a10.56 10.56 0 0 0 1.832.142c.673 0 1.277-.042 1.814-.124.537-.089 1.03-.204 1.478-.345a9.565 9.565 0 0 0 1.23-.478c.373-.183.727-.37 1.063-.558v2.956ZM36.64 28.446c0 1.045-.191 1.968-.575 2.77a5.405 5.405 0 0 1-1.646 2.001c-.714.537-1.582.944-2.603 1.221-1.014.272-2.156.408-3.425.408-1.269 0-2.416-.136-3.443-.407-1.02-.278-1.891-.685-2.611-1.222a5.452 5.452 0 0 1-1.664-2c-.39-.803-.584-1.726-.584-2.77 0-1.045.194-1.966.584-2.762a5.432 5.432 0 0 1 1.664-2.01c.72-.537 1.59-.94 2.61-1.212 1.028-.277 2.175-.416 3.444-.416 1.269 0 2.41.139 3.425.416 1.021.271 1.889.675 2.603 1.212a5.386 5.386 0 0 1 1.646 2.01c.384.796.575 1.717.575 2.761Zm-3.319 0c0-.454-.074-.905-.221-1.354a2.881 2.881 0 0 0-.77-1.221c-.366-.36-.868-.652-1.505-.877-.637-.224-1.449-.336-2.434-.336-.66 0-1.242.053-1.744.16-.501.1-.935.241-1.3.424a3.507 3.507 0 0 0-.921.646 3.105 3.105 0 0 0-.593.788c-.148.277-.254.57-.319.876a4.637 4.637 0 0 0 0 1.806c.065.307.171.602.319.885.147.277.345.537.593.779s.554.454.92.637c.366.177.8.319 1.301.425.502.1 1.083.15 1.744.15.985 0 1.797-.111 2.434-.336.637-.224 1.139-.516 1.505-.876a2.89 2.89 0 0 0 .77-1.213 4.39 4.39 0 0 0 .221-1.363ZM46.541 34.518h-3.283V22.357h8.231c.885 0 1.635.091 2.248.274.62.183 1.121.443 1.505.779.39.336.67.744.84 1.221.178.473.266 1 .266 1.585 0 .513-.073.962-.22 1.345a3.063 3.063 0 0 1-.585.991 3.462 3.462 0 0 1-.85.69 5.774 5.774 0 0 1-1.027.47l3.984 4.806h-3.842l-3.682-4.479h-3.585v4.48Zm6.488-8.32a1.65 1.65 0 0 0-.097-.602.78.78 0 0 0-.319-.398 1.582 1.582 0 0 0-.62-.23 5.365 5.365 0 0 0-.955-.071H46.54v2.602h4.497c.383 0 .702-.023.956-.07.26-.048.466-.122.62-.222a.825.825 0 0 0 .318-.407 1.65 1.65 0 0 0 .097-.602ZM73.401 32.217h-6.78l-1.142 2.301h-3.664l6.364-12.161h3.664l6.364 12.161h-3.664L73.4 32.217Zm-5.603-2.372h4.444l-2.213-4.479-2.23 4.479ZM83.824 34.518V22.357h3.284v9.497h8.878v2.664H83.824ZM37.34 14.77c0-.252.129-.632.384-.885.128-.127.128-.38 0-.633-.128-.38-.255-.633-.128-1.012.128-.506.384-.76.64-.886.255-.127.383-.38.255-.633-.128-.38 0-.759.128-1.012s.511-.506.767-.633c.255-.126.383-.253.51-.632 0-.38.129-.76.384-1.013.384-.38.767-.38 1.023-.38.255 0 .511-.252.639-.505a1.3 1.3 0 0 1 .639-.76c.383-.253.767-.253 1.022-.126.256 0 .511 0 .64-.253.127-.253.383-.506.894-.633.383-.127.767 0 1.022.127.256.126.512.126.767-.127.511-.506 1.406-.506 1.917 0 .256.127.512.253.767.127.384-.127.64-.254 1.023-.127.383.127.639.253.894.633.128.253.384.38.64.253.383-.127.766 0 1.022.126.383.253.639.633.639.76.128.253.255.38.639.506.383 0 .767.126 1.022.38.384.379.384.759.384 1.012s.255.506.51.632c.384.127.64.38.768.633s.255.633.128 1.012c0 .254 0 .506.255.633.256.253.511.506.64.886.127.38 0 .76-.129 1.012-.127.253-.127.506.128.76.256.252.384.506.384.885v.127c0 .253.255.506.51.632-.766.253-1.788.38-2.81.507.127-.127.127-.254.127-.38 0-.38-.128-.76-.256-1.012a1.74 1.74 0 0 0 0-1.14c-.127-.379-.255-.632-.639-1.011 0-.38-.127-.76-.255-1.14-.256-.379-.512-.632-.767-.759-.128-.38-.256-.759-.511-1.012-.256-.253-.64-.506-1.023-.506-.128-.38-.511-.633-.767-.76-.383-.126-.639-.252-1.022-.252-.256-.254-.64-.507-1.023-.507a1.79 1.79 0 0 0-1.15 0c-.639-.38-1.533-.38-2.172 0a1.79 1.79 0 0 0-1.15 0c-.384.127-.768.253-1.023.507-.384 0-.767.126-1.15.253-.384.253-.64.506-.767.759-.384.126-.767.253-1.023.506-.255.253-.511.633-.511 1.012-.383.127-.64.506-.767.76 0 .253-.128.632-.128 1.012-.255.253-.51.633-.51 1.012a1.74 1.74 0 0 0 0 1.14c-.257.379-.257.632-.257 1.011 0 .127.128.38.256.507-1.15-.127-2.045-.38-2.812-.507.256 0 .512-.253.512-.632-.128-.127-.128-.127-.128-.253Zm9.33 1.772c.128-.126.128-.253.128-.38l.256-.252c.128 0 .256-.127.256-.254.127 0 .255 0 .255-.126h.384c.128 0 .255.126.383 0 .128.126.256.126.384.126l.255.253c0 .127.128.254.256.254 0 .126 0 .253.128.253-.256 0-.64.126-1.278.126-.767.127-1.15 0-1.406 0Zm3.835 0v-.38c0-.126-.128-.252-.128-.252 0-.127 0-.254-.128-.38-.128-.127-.128-.253-.255-.253 0-.127-.128-.253-.256-.253l-.256-.253-.255-.253c-.128 0-.256-.127-.384-.127-.127-.127-.255-.127-.255-.127h-.384c-.255-.126-.51-.126-.639 0h-.383c-.128 0-.256.127-.256.127-.128 0-.255 0-.383.127-.128 0-.256.126-.256.253-.128 0-.255.126-.255.253l-.256.253-.256.253c0 .126-.127.253-.127.38.127 0 0 .126 0 .253v.506c-.512 0-1.15 0-1.662-.127v-.253s0-.126.128-.126c.128-.254.255-.507.128-.76v-.126c0-.127.127-.127.127-.127.256-.126.384-.38.256-.632v-.127c0-.127.128-.127.128-.127.256-.126.383-.253.511-.632 0-.127 0-.127.128-.127l.128-.126a.704.704 0 0 0 .639-.38s0-.126.128-.126h.127c.256 0 .512 0 .64-.253l.127-.127h.128c.256.127.511.127.767-.127h.383c.256.127.512.254.767.127h.128c.128 0 .128.127.128.127.128.253.383.38.639.253h.128l.127.126c.128.253.256.38.64.38 0 0 .127 0 .127.126l.128.127c0 .253.256.506.511.633 0 0 .128 0 .128.126v.127c0 .253 0 .506.256.632l.127.127v.126c-.127.253-.127.506.128.76 0 0 0 .126.128.126v.253h-1.79Zm2.812-1.012v-.76c-.128-.252-.128-.379-.384-.632a.961.961 0 0 0-.255-.633.993.993 0 0 0-.512-.506c-.127-.253-.255-.38-.383-.633-.128-.126-.383-.253-.64-.38a.993.993 0 0 0-.51-.505c-.256-.127-.512-.127-.64-.254-.127-.126-.383-.252-.638-.38a.822.822 0 0 0-.767 0c-.384-.252-1.023-.252-1.406 0h-.767a.704.704 0 0 0-.639.38.982.982 0 0 0-.639.254.994.994 0 0 0-.511.506c-.256.126-.384.253-.64.38-.127.126-.255.379-.383.632a.993.993 0 0 0-.51.506c-.129.253-.257.506-.257.633-.127.127-.255.38-.383.633 0 .253-.128.506 0 .759-.128.253-.128.506-.128.633v.126c-.767 0-1.406-.126-2.045-.253.256-.127.384-.253.384-.506v-.127c0-.253.128-.38.255-.506.128-.253.256-.506.128-.759-.128-.127-.128-.38-.128-.633.128-.253.256-.38.384-.506.255-.126.383-.38.255-.633 0-.253 0-.38.128-.632.128-.127.256-.253.511-.38.256-.127.384-.253.512-.633 0-.126 0-.38.255-.506.128-.126.384-.253.511-.253.256 0 .512-.253.64-.506 0-.253.127-.38.383-.506.128-.127.383-.127.639-.127s.511 0 .639-.253c.128-.126.256-.253.511-.38.256 0 .384 0 .64.127.255.127.51.127.766-.126.384-.38.895-.127 1.15 0 .256.126.512.253.767.126.128-.126.384-.126.64-.126.255.126.383.253.51.38.128.252.384.379.64.252.255 0 .383 0 .639.127.255.126.383.38.383.506.128.253.256.38.639.506.128 0 .383 0 .511.253.128.127.256.38.256.506 0 .254.128.506.511.633.256 0 .383.253.511.38-.511.506-.511.632-.511.886 0 .253 0 .506.256.632.127.127.255.253.383.506 0 .253 0 .38-.128.633s-.128.506.128.76c.128.126.128.252.256.505v.127c0 .253.127.38.383.506-.639.127-1.406.127-2.045.253v-.126c-.128-.38-.128-.633-.255-.886Zm8.69-1.265c0 .253-.766.759-2.3 1.138.128-.126.128-.253.128-.506 0-.506-.128-1.012-.511-1.518.127-.506.255-1.013 0-1.519-.128-.506-.384-1.012-.895-1.265 0-.506-.128-1.012-.384-1.519-.255-.506-.639-.885-1.15-1.012-.128-.506-.383-1.012-.767-1.392-.383-.38-.894-.633-1.406-.76A2.998 2.998 0 0 0 53.7 4.775a3.43 3.43 0 0 0-1.534-.38c-.383-.38-.766-.632-1.405-.885a3.146 3.146 0 0 0-1.534 0c-.895-.633-2.173-.633-3.068 0-.51-.127-1.022-.253-1.533 0-.511.126-1.023.38-1.406.885a3.43 3.43 0 0 0-1.534.38c-.511.253-.894.633-1.022 1.139-.511.126-1.023.38-1.406.76-.384.379-.64.885-.767 1.391a3.007 3.007 0 0 0-1.15 1.012 3.343 3.343 0 0 0-.384 1.519c-.383.38-.639.76-.894 1.392a3.055 3.055 0 0 0 0 1.518c-.256.506-.512 1.013-.512 1.519 0 .126.128.38.256.506-1.15-.633-1.917-1.012-1.917-1.265v-.254c0-.38.256-.885.511-1.138.128-.253.256-.507.128-.76-.256-.506-.256-1.012-.128-1.518s.511-.886.895-1.266c.255-.126.383-.38.255-.632-.127-.506 0-1.013.256-1.519s.64-.759 1.15-.886c.256-.126.384-.253.512-.632 0-.506.255-1.013.639-1.392.51-.506 1.022-.633 1.406-.633.255 0 .51-.126.639-.506.127-.506.51-.886.894-1.139.511-.253 1.023-.38 1.534-.253.255 0 .511 0 .639-.253.255-.506.767-.76 1.278-.886.256 0 .895.127 1.278.253.256.127.511.127.767-.126a2.02 2.02 0 0 1 2.812 0c.255.126.51.253.766.126.512-.253 1.023-.253 1.534-.126.511.126.895.506 1.278.885.128.254.384.38.64.254.51-.127 1.022 0 1.533.253.511.253.767.632.895 1.139.127.253.255.38.639.506.51 0 1.022.253 1.405.632.384.38.64.886.64 1.392 0 .253.255.506.51.633.512.127.895.506 1.15.886.257.506.384 1.012.257 1.518 0 .253 0 .506.255.633.511.253.767.76.895 1.265.128.506.128 1.013-.128 1.519-.128.253-.128.506.128.76.255.379.511.758.511 1.138-.256-.127-.256 0-.256.127Z" fill="#6D7D8A"></path></svg> 