<svg viewBox="0 0 75 31" fill="none" xmlns="http://www.w3.org/2000/svg"><path d="M12.106 14.447c0 .547-.124 1.032-.373 1.455-1.188 2.117-3.228 3.176-6.12 3.176-.904 0-2.048-.177-3.431-.53 0 .036-.01.071-.027.107 0 .052.036.22.107.502-.071.212-.204.344-.4.397l-.212-.106c-.337.036-.533-.14-.586-.529-.053-.564-.106-.873-.16-.926-.035-.053-.212-.15-.532-.291-.248-.106-.372-.265-.372-.477 0-.264.124-.405.372-.423.267-.035.408-.097.426-.185v-.424c0-.3.01-.776.027-1.429a29.68 29.68 0 0 0 .053-1.481l-.027-.926c-.372-.124-.558-.292-.558-.503 0-.265.168-.486.505-.662V2.354c0-.141.098-.318.293-.53.213-.211.39-.317.532-.317.284 0 .443.026.479.08.106.105.204.22.293.343-.284 1.623-.426 2.788-.426 3.493l.026.16C3.202 2.494 5.002.95 7.397.95c1.383 0 2.438.53 3.166 1.588.656.935.984 2.108.984 3.52 0 1.058-.248 2.099-.745 3.122-.567 1.2-1.295 1.94-2.182 2.223 2.324.282 3.486 1.296 3.486 3.043ZM10.19 5.953c0-2.647-.966-3.97-2.9-3.97-1.312 0-2.51.856-3.592 2.567-.975 1.535-1.463 2.99-1.463 4.366v2.329h1.969c2.04 0 3.52-.362 4.443-1.085 1.029-.83 1.543-2.232 1.543-4.207Zm.559 8.335c0-.97-.94-1.596-2.82-1.879-.763-.123-2.093-.185-3.991-.185-.745 0-1.34.053-1.783.159-.018.582-.026 1.79-.026 3.625 0 .459.017.873.053 1.244.851.494 1.977.741 3.379.741 1.135 0 2.244-.335 3.326-1.006 1.241-.74 1.862-1.64 1.862-2.699ZM21.357 16.538c0 .776-.524 1.473-1.57 2.09-.94.565-1.827.847-2.66.847-2.378 0-3.566-1.5-3.566-4.499 0-1.323.24-2.743.718-4.26.639-1.976 1.455-2.964 2.448-2.964.851 0 1.783.432 2.794 1.297 1.01.846 1.516 1.693 1.516 2.54 0 1.094-.443 2.046-1.33 2.858-.887.812-1.89 1.217-3.006 1.217-.107 0-.338-.088-.692-.264-.337-.177-.568-.265-.692-.265-.23 0-.346.07-.346.212 0 2.028.674 3.043 2.022 3.043.692 0 1.33-.23 1.916-.688.355-.265.745-.68 1.17-1.244.337-.44.56-.661.666-.661.408 0 .612.247.612.74Zm-1.836-4.87c0-.617-.178-1.19-.532-1.72-.355-.546-.825-.82-1.41-.82-.71 0-1.287.441-1.73 1.323a5.065 5.065 0 0 0-.559 2.302c0 .512.16.944.48 1.297.336.335.762.503 1.276.503.728 0 1.33-.309 1.81-.926a3.08 3.08 0 0 0 .665-1.959ZM30.314 17.596c0 .617-.47 1.138-1.41 1.561-.78.335-1.535.503-2.262.503-.479 0-1.029-.115-1.65-.344-.337-.141-.878-.511-1.623-1.111-.815-.653-1.223-1.103-1.223-1.35 0-.547.328-.794.984-.74h.16c.035.528.603 1.102 1.703 1.72.993.564 1.791.846 2.394.846.78 0 1.17-.265 1.17-.794 0-.317-.478-.759-1.436-1.323-1.313-.759-2.208-1.367-2.687-1.826-.976-.935-1.464-2.011-1.464-3.228 0-.918.24-1.791.719-2.62.55-.988 1.241-1.482 2.075-1.482.603 0 1.33.282 2.182.847.851.547 1.348 1.102 1.49 1.667.142.476.213 1.032.213 1.667 0 .688-.125 1.438-.373 2.25a.887.887 0 0 1-.559.185c-.124 0-.319-.044-.585-.133-.266-.106-.399-.211-.399-.317 0 .07.098-.124.293-.582.142-.3.212-.847.212-1.641 0-1.888-.594-2.832-1.782-2.832-.62 0-1.118.415-1.49 1.244-.32.67-.479 1.35-.479 2.038 0 .864.506 1.702 1.517 2.514.337.282 1.268.89 2.793 1.826 1.011.617 1.517 1.102 1.517 1.455ZM36.062 10.822c-.142.106-.478.194-1.01.264-.586.07-.923.133-1.012.185-.017.195-.026 1.174-.026 2.938 0 1.376.017 2.302.053 2.778 0 .194.044.503.133.927.089.423.133.75.133.979 0 .14-.089.282-.266.423-.177.141-.337.212-.479.212-.355 0-.639-.362-.851-1.085a5.828 5.828 0 0 1-.213-1.509c0-2.487.017-4.322.053-5.504-.106-.088-.514-.088-1.224 0-.568.07-.851-.132-.851-.608 0-.67.718-.98 2.155-.927l.346-4.79a.607.607 0 0 0-.08-.237 1.115 1.115 0 0 1-.053-.265c0-.106.07-.203.213-.291a.709.709 0 0 1 .505-.132c.62.053.931.361.931.926 0 .44-.062 1.102-.186 1.984-.124.883-.186 1.535-.186 1.959 0 .211.017.414.053.608l1.463-.08c.497 0 .745.195.745.583a.759.759 0 0 1-.346.662ZM48.165 2.354a.92.92 0 0 1-.665.29c-.107 0-.266-.008-.48-.026a3.273 3.273 0 0 0-.505-.053c-.745 0-1.738.15-2.98.45-1.472.37-2.465.582-2.98.635l-.558 4.975a9.239 9.239 0 0 0-.053.9c0 .388.133.582.399.582.07 0 .15-.009.24-.026 1.702-.424 2.935-.635 3.698-.635 1.1 0 1.472-.018 1.117-.053.355.035.638.211.851.529l.08.662c-.053.123-.142.185-.266.185-.124 0-.293.017-.505.053a2.735 2.735 0 0 1-.453.053c-1.525 0-3.246.29-5.161.873-.125.582-.187 1.879-.187 3.89 0 1.658.063 2.584.187 2.778.07.106.15.212.24.318.105.106.159.194.159.264 0 .124-.098.256-.293.397-.195.16-.346.239-.452.239-.018 0-.284-.142-.798-.424-.373-.97-.56-2.25-.56-3.837 0-1.252.098-3.105.293-5.557.213-2.47.32-4.33.32-5.583 0-.265-.124-.415-.373-.45-.39-.07-.62-.133-.691-.186-.267-.176-.4-.335-.4-.476 0-.176.08-.353.24-.53.07-.034.293-.06.665-.079.302-.017.506-.088.612-.211.035-.141.053-.274.053-.397 0-.265.178-.503.532-.715.284-.158.524-.238.719-.238.177 0 .275.115.292.344v.556a.429.429 0 0 0 .187.265c.833-.177 1.676-.353 2.527-.53 1.011-.194 1.863-.29 2.554-.29 1.011 0 1.81.352 2.395 1.058ZM55.461 13.944c0 1.517-.337 2.84-1.011 3.97-.798 1.358-1.907 2.037-3.326 2.037-1.437 0-2.51-.556-3.22-1.667-.585-.917-.877-2.135-.877-3.652 0-1.5.337-2.972 1.01-4.419.852-1.782 1.934-2.673 3.247-2.673.337 0 .816.194 1.437.582 1.827 1.13 2.74 3.07 2.74 5.822Zm-1.277-.026c0-1.13-.15-2.144-.453-3.043-.443-1.253-1.126-1.88-2.048-1.88-1.064 0-1.898.698-2.501 2.091a8.706 8.706 0 0 0-.692 3.467c0 1.111.16 2.046.479 2.805.461 1.04 1.18 1.561 2.155 1.561 1.064 0 1.871-.6 2.421-1.8.426-.934.639-2.002.639-3.201ZM65.23 13.944c0 1.517-.337 2.84-1.01 3.97-.799 1.358-1.907 2.037-3.326 2.037-1.437 0-2.51-.556-3.22-1.667-.585-.917-.878-2.135-.878-3.652 0-1.5.337-2.972 1.011-4.419.852-1.782 1.934-2.673 3.246-2.673.337 0 .816.194 1.437.582 1.827 1.13 2.74 3.07 2.74 5.822Zm-1.277-.026c0-1.13-.15-2.144-.452-3.043-.443-1.253-1.126-1.88-2.049-1.88-1.064 0-1.898.698-2.5 2.091a8.706 8.706 0 0 0-.692 3.467c0 1.111.16 2.046.479 2.805.46 1.04 1.18 1.561 2.155 1.561 1.064 0 1.871-.6 2.42-1.8.426-.934.64-2.002.64-3.201ZM75 2.354c0 .405-.053.926-.16 1.561-.124.83-.204 1.35-.24 1.561-.052.547-.141 2.364-.265 5.452-.107 2.822-.16 4.383-.16 4.683 0 1.888.169 3.22.506 3.996-.124.194-.284.291-.48.291-.177 0-.38-.088-.611-.264-.213-.177-.346-.353-.4-.53 0-.352-.052-.89-.159-1.614-1.046 1.323-2.049 1.985-3.006 1.985-1.153 0-2.04-.432-2.661-1.297-.532-.74-.798-1.72-.798-2.937 0-1.482.275-3.017.825-4.605.71-2.081 1.65-3.122 2.82-3.122.496 0 1.002.185 1.516.556.107.07.524.44 1.25 1.111.178-1.2.267-3.828.267-7.886.124-.123.293-.185.505-.185.338 0 .63.123.879.37.248.247.372.538.372.874Zm-1.996 9.764c0-.776-.177-1.473-.532-2.09-.425-.741-1.002-1.112-1.729-1.112-.887 0-1.596.9-2.128 2.7-.426 1.358-.64 2.637-.64 3.837 0 .776.125 1.446.373 2.01.337.742.843 1.112 1.517 1.112 1.1 0 1.933-.847 2.501-2.54.426-1.217.638-2.523.638-3.917ZM4.885 26.094v3.245h-.496l-1.79-2.197v2.197H2v-3.245h.496l1.79 2.197v-2.197h.599ZM9.716 28.588H8.093l-.32.75H7.15l1.461-3.244h.594l1.465 3.245h-.63l-.325-.751Zm-.2-.473-.612-1.418-.607 1.418h1.22ZM13.435 26.604H12.36v-.51h2.755v.51h-1.076v2.735h-.603v-2.735ZM18.759 29.385c-.448 0-.798-.125-1.048-.375-.25-.254-.376-.615-.376-1.085v-1.83h.603v1.807c0 .636.275.955.826.955.547 0 .82-.319.82-.955v-1.808h.594v1.831c0 .47-.125.831-.375 1.085-.248.25-.596.375-1.044.375ZM25.002 29.339l-.663-.95c-.028.003-.07.004-.125.004h-.733v.946h-.603v-3.245h1.336c.281 0 .526.047.733.14.21.092.37.225.482.398.111.173.167.378.167.616 0 .244-.06.454-.18.63a1.049 1.049 0 0 1-.511.395l.747 1.066h-.65Zm-.014-2.09c0-.208-.068-.367-.204-.478-.136-.111-.335-.167-.598-.167h-.705v1.293h.705c.263 0 .462-.055.598-.167.136-.114.204-.275.204-.482ZM30.232 28.588h-1.624l-.32.75h-.621l1.46-3.244h.594l1.466 3.245h-.63l-.325-.751Zm-.2-.473-.612-1.418-.608 1.418h1.22ZM33.455 26.094h.603v2.735h1.698v.51h-2.3v-3.245ZM44.652 29.663a1.07 1.07 0 0 1-.38.288 1.25 1.25 0 0 1-1.08-.056c-.187-.099-.399-.272-.637-.52a1.779 1.779 0 0 1-.807-.259 1.611 1.611 0 0 1-.756-1.4c0-.315.076-.599.227-.852.152-.257.36-.456.627-.598.266-.145.564-.218.895-.218.33 0 .629.073.895.218.266.142.474.34.626.593.152.253.227.54.227.857a1.635 1.635 0 0 1-.58 1.27 1.707 1.707 0 0 1-.635.33c.09.095.178.165.264.208.087.043.18.065.279.065a.73.73 0 0 0 .556-.26l.279.334ZM41.6 27.716c0 .217.05.413.148.59.1.172.235.308.408.407.174.096.368.144.585.144.216 0 .411-.048.584-.144.173-.099.31-.235.408-.408.1-.176.149-.372.149-.589 0-.216-.05-.41-.149-.584a1.036 1.036 0 0 0-.408-.407 1.157 1.157 0 0 0-.584-.149c-.217 0-.411.05-.585.149-.173.095-.309.231-.408.407a1.155 1.155 0 0 0-.148.584ZM48.38 29.385c-.449 0-.798-.125-1.048-.375-.25-.254-.376-.615-.376-1.085v-1.83h.603v1.807c0 .636.275.955.825.955.548 0 .821-.319.821-.955v-1.808h.594v1.831c0 .47-.125.831-.376 1.085-.247.25-.595.375-1.043.375ZM54.536 28.588h-1.623l-.32.75h-.621l1.46-3.244h.594l1.466 3.245h-.63l-.326-.751Zm-.199-.473-.612-1.418-.608 1.418h1.22ZM57.76 26.094h.603v2.735h1.698v.51h-2.3v-3.245ZM62.392 26.094h.603v3.245h-.603v-3.245ZM66.387 26.604H65.31v-.51h2.755v.51H66.99v2.735h-.603v-2.735ZM71.73 28.194v1.145h-.604v-1.136l-1.275-2.109h.644l.951 1.58.96-1.58H73l-1.27 2.1Z" fill="#6D7D8A"/></svg>