<?xml version="1.0" encoding="UTF-8"?> <svg xmlns="http://www.w3.org/2000/svg" viewBox="0 0 107 25" fill="none"><path d="M39.96 15.107c.442.411.824.677 1.145.798-.03.12-.095.281-.196.482-.09.2-.21.401-.361.602-.14.201-.306.372-.497.512-.19.14-.402.216-.633.226-.28.01-.537-.02-.768-.09-.22-.08-.457-.211-.708-.392-.19-.15-.416-.341-.677-.572a25.677 25.677 0 0 1-.738-.738 11.643 11.643 0 0 1-.573-.633 3.7 3.7 0 0 0-.647-.662.977.977 0 0 0-.768-.211c-.161.01-.261.055-.302.135-.03.07-.06.216-.09.437-.02.15-.025.332-.015.542.01.201.025.392.045.573.03.18.045.311.045.391 0 .181.036.322.106.422.07.09.14.176.21.256-.17.13-.436.271-.797.422-.362.15-.764.226-1.205.226a.817.817 0 0 1-.693-.347 2.294 2.294 0 0 1-.347-.843 5.502 5.502 0 0 1-.12-.964c0-.09-.005-.336-.015-.738 0-.402-.005-.899-.015-1.491v-1.928c0-.693-.005-1.375-.015-2.048 0-.683-.005-1.3-.015-1.853V5.77c.11-.02.3-.025.572-.015.281.01.572.055.873.135.342.08.653.216.934.407.291.19.457.467.497.828.02.231.03.422.03.573.01.15.015.306.015.467 0 .532.131.868.392 1.009.291.15.688.05 1.19-.302.08-.06.22-.175.422-.346.2-.18.431-.392.692-.633.261-.24.532-.491.814-.753.28-.26.537-.502.768-.722.24-.231.437-.417.587-.558l.226-.21c.09.07.216.235.377.496.17.262.32.553.451.874.13.321.211.653.241.994.04.331-.025.607-.195.828-.07.09-.186.211-.347.362-.15.15-.321.311-.512.482l-.527.467c-.17.14-.301.25-.392.331a2.057 2.057 0 0 0-.707 1.325c-.03.251-.02.502.03.753s.16.482.331.693c.12.14.301.332.542.572l.738.708c.251.231.452.422.603.573ZM50.028 14.926c.01.22.025.492.045.813.03.322.095.633.196.934.1.301.26.542.482.723-.251.17-.508.291-.768.361-.262.08-.518.1-.769.06a2.985 2.985 0 0 1-.225-.075c-.08-.02-.191-.05-.332-.09a1.94 1.94 0 0 0-.813-.045c-.311.04-.638.09-.98.15-.33.07-.657.106-.978.106-.522 0-1.044-.09-1.566-.271a4.167 4.167 0 0 1-1.416-.874c-.422-.391-.743-.889-.964-1.49-.22-.603-.286-1.326-.196-2.17.06-.582.226-1.114.497-1.596.271-.492.603-.914.994-1.265a4.651 4.651 0 0 1 1.265-.829c.452-.2.889-.296 1.31-.286.322.01.568.02.739.03.18.01.411.036.692.076.171.02.387-.005.648-.076.261-.07.522-.145.783-.225.271-.09.502-.136.693-.136.291-.01.497 0 .617.03.121.02.221.04.302.06-.06.181-.11.452-.15.814-.041.361-.071.773-.091 1.235l-.03 1.415c-.01.492-.015.964-.015 1.416.01.452.02.854.03 1.205Zm-5.663-1.386c.02.502.11.894.27 1.175.172.271.372.462.603.572.241.11.472.166.693.166.442.01.768-.16.98-.512.21-.352.31-.838.3-1.46 0-.172-.02-.372-.06-.603-.03-.231-.09-.457-.18-.678a1.5 1.5 0 0 0-.347-.557.726.726 0 0 0-.557-.226c-.462 0-.869.17-1.22.512-.342.341-.502.878-.482 1.611ZM60.159 15.74c.01.441.075.752.196.933l.196.256-.272.196c-.17.12-.401.246-.692.376-.292.13-.618.196-.98.196-.532 0-.878-.145-1.039-.437-.16-.29-.246-.667-.256-1.13 0-.08.005-.255.016-.526.01-.271.014-.578.014-.92.01-.35.01-.672 0-.963a3.472 3.472 0 0 0-.06-.633c-.11-.401-.326-.577-.647-.527-.251.03-.487.176-.708.437a3.09 3.09 0 0 0-.542.904c-.14.351-.211.683-.211.994 0 .16-.01.321-.03.482l-.03.421c-.01.09 0 .201.03.332.04.13.11.236.21.316-.07.12-.21.276-.421.467-.201.19-.422.366-.663.527-.23.15-.432.236-.602.256-.161.01-.352-.04-.573-.15a1.625 1.625 0 0 1-.557-.498 1.47 1.47 0 0 1-.24-.798v-.557c.01-.291.014-.643.014-1.054.01-.412.015-.849.015-1.31.01-.462.015-.91.015-1.341v-1.115a2.89 2.89 0 0 0-.105-.783 3.681 3.681 0 0 0-.196-.632l-.09-.256c.09-.02.246-.035.467-.045.23-.01.487-.005.768.015.28.02.557.065.828.135.281.07.517.181.708.332.2.15.402.246.602.286.211.03.377.01.497-.06a8.75 8.75 0 0 1 1.07-.603c.361-.17.713-.276 1.054-.316.17-.02.371-.01.602.03.231.03.457.105.678.226.231.12.427.291.587.512.171.22.277.502.317.843.07.583.09 1.296.06 2.139-.03.833-.04 1.847-.03 3.042ZM69.954 8.917c.02.462.025.908.015 1.34v1.732c.01.412.015.909.015 1.491.01.582.01 1.185 0 1.807-.01.623-.035 1.2-.075 1.732-.04.583-.166 1.095-.377 1.537-.2.441-.497.768-.888.979-.392.21-.894.27-1.506.18-.462-.07-.814-.21-1.055-.421a1.469 1.469 0 0 1-.451-.738 1.992 1.992 0 0 1 0-.844c.07-.281.17-.532.3-.753.091.11.212.231.362.362.16.12.332.215.512.286.191.06.372.07.542.03a.46.46 0 0 0 .257-.166c.06-.09.08-.196.06-.316-.02-.12-.166-.256-.437-.407-.261-.16-.602-.23-1.024-.21-.16.01-.286.02-.377.03a4.341 4.341 0 0 1-2.229-.407 3.19 3.19 0 0 1-1.385-1.295c-.342-.583-.492-1.326-.452-2.23.03-.582.17-1.104.422-1.566.25-.472.572-.868.964-1.19a4.292 4.292 0 0 1 1.265-.737c.451-.171.888-.241 1.31-.211.05 0 .15.015.301.045l.452.09c.15.02.25.035.301.045.352.06.743.07 1.175.03.442-.05.818-.105 1.13-.165.2-.03.396-.045.587-.045l.286-.015Zm-4.473 2.635c-.402.04-.703.191-.904.452-.19.261-.24.588-.15.98.04.18.135.36.286.541.16.17.351.306.572.407.221.1.442.14.663.12.22-.02.417-.055.587-.105.17-.06.306-.18.407-.361.1-.181.15-.467.15-.859 0-.392-.08-.673-.24-.843a.891.891 0 0 0-.603-.317 2.79 2.79 0 0 0-.768-.015ZM79.517 14.926c.01.22.025.492.045.813.03.322.095.633.196.934.1.301.26.542.482.723-.251.17-.507.291-.768.361-.261.08-.517.1-.768.06a2.985 2.985 0 0 1-.226-.075c-.08-.02-.191-.05-.332-.09a1.94 1.94 0 0 0-.813-.045c-.311.04-.638.09-.979.15-.331.07-.658.106-.979.106-.522 0-1.044-.09-1.566-.271a4.167 4.167 0 0 1-1.416-.874c-.422-.391-.743-.889-.964-1.49-.22-.603-.286-1.326-.196-2.17.06-.582.226-1.114.497-1.596.271-.492.603-.914.994-1.265a4.653 4.653 0 0 1 1.266-.829c.451-.2.888-.296 1.31-.286.321.01.567.02.738.03.18.01.412.036.693.076.17.02.386-.005.647-.076.261-.07.522-.145.783-.225.272-.09.502-.136.693-.136.291-.01.497 0 .618.03.12.02.22.04.3.06-.06.181-.11.452-.15.814-.04.361-.07.773-.09 1.235l-.03 1.415c-.01.492-.015.964-.015 1.416.01.452.02.854.03 1.205Zm-5.663-1.386c.02.502.11.894.271 1.175.17.271.372.462.603.572.24.11.471.166.692.166.442.01.768-.16.98-.512.21-.352.31-.838.3-1.46 0-.172-.02-.372-.06-.603-.03-.231-.09-.457-.18-.678a1.5 1.5 0 0 0-.347-.557.726.726 0 0 0-.557-.226c-.462 0-.869.17-1.22.512-.341.341-.502.878-.482 1.611ZM86.275 8.932c.2-.05.386 0 .557.15.17.15.321.357.452.618.14.25.256.512.346.783a11.45 11.45 0 0 1 .286.934l-.361.075c-.231.04-.523.125-.874.256-.341.12-.683.306-1.024.557-.2.15-.392.332-.572.543-.181.21-.337.481-.467.813-.13.321-.226.748-.286 1.28a4.7 4.7 0 0 0-.015.843c.02.292.03.537.03.738.01.181.035.312.075.392.05.07.09.13.12.18-.13.121-.371.257-.722.407-.342.14-.718.211-1.13.211-.402 0-.698-.13-.889-.391-.19-.262-.286-.623-.286-1.085 0-.11-.005-.351-.015-.723 0-.381-.005-.838-.015-1.37 0-.532-.005-1.085-.015-1.657 0-.572-.005-1.104-.015-1.596 0-.502-.005-.91-.015-1.22v-.467c.1-.02.271-.035.512-.045.251-.01.522 0 .813.03.291.03.563.1.814.21.12.05.28.101.482.151.21.04.411.06.602.06.2 0 .346-.03.437-.09.19-.14.381-.261.572-.361.2-.1.402-.176.603-.226ZM96.858 13.058c.09.844.025 1.567-.196 2.17-.22.601-.547 1.099-.979 1.49a4.135 4.135 0 0 1-1.43.874 4.763 4.763 0 0 1-1.567.27c-.512 0-1.034-.09-1.566-.27a4.167 4.167 0 0 1-1.416-.874c-.411-.391-.733-.889-.964-1.49-.22-.603-.286-1.326-.195-2.17.09-.773.32-1.45.692-2.033a4.19 4.19 0 0 1 1.446-1.37 4.331 4.331 0 0 1 1.943-.573c.04-.01.08-.04.12-.09.05-.06.131-.11.242-.15.12-.05.3-.066.542-.046.572.16 1.094.437 1.566.828a4.83 4.83 0 0 1 1.175 1.461c.321.583.517 1.24.587 1.973Zm-4.307 2.395c.321 0 .597-.075.828-.226.231-.15.417-.341.557-.572.14-.241.241-.492.301-.753a2.75 2.75 0 0 0 .106-.708c0-.432-.07-.768-.21-1.01-.141-.24-.463-.456-.965-.647a.537.537 0 0 1-.286-.24c-.05-.101-.126-.156-.226-.166a.989.989 0 0 0-.843.27c-.231.222-.407.518-.527.89-.12.37-.181.772-.181 1.204 0 .432.08.793.24 1.085.171.29.367.512.588.662.231.14.437.211.618.211ZM106.433 13.058c.09.844.025 1.567-.196 2.17a3.683 3.683 0 0 1-.979 1.49 4.13 4.13 0 0 1-1.431.874 4.761 4.761 0 0 1-1.566.27c-.512 0-1.034-.09-1.566-.27a4.17 4.17 0 0 1-1.416-.874c-.412-.391-.733-.889-.964-1.49-.22-.603-.286-1.326-.196-2.17.09-.773.322-1.45.693-2.033a4.19 4.19 0 0 1 1.446-1.37 4.33 4.33 0 0 1 1.943-.573c.04-.01.08-.04.12-.09a.56.56 0 0 1 .241-.15c.121-.05.301-.066.542-.046.573.16 1.095.437 1.567.828a4.84 4.84 0 0 1 1.175 1.461 5.03 5.03 0 0 1 .587 1.973Zm-4.307 2.395c.321 0 .597-.075.828-.226.231-.15.417-.341.557-.572.141-.241.241-.492.301-.753.071-.261.106-.497.106-.708 0-.432-.071-.768-.211-1.01-.141-.24-.462-.456-.964-.647a.535.535 0 0 1-.286-.24c-.05-.101-.126-.156-.226-.166a.987.987 0 0 0-.843.27c-.231.222-.407.518-.528.89-.12.37-.18.772-.18 1.204 0 .432.08.793.241 1.085.17.29.366.512.587.662.231.14.437.211.618.211ZM25.162 10.858a2.138 2.138 0 0 0-.284-.391c-.29-.333-.618-.633-.946-.922a43.495 43.495 0 0 0-.757-.638c-.435-.354-.725-.852-1.112-1.254-.553-.573-1.262-.991-1.875-1.506-.612-.52-1.267-.98-1.917-1.452-.65-.472-1.279-.97-1.896-1.49-.602-.51-1.166-1.061-1.773-1.56-.521-.434-1.08-.852-1.708-1.125-.532-.23-1.09-.333-1.51.085-.279.547-.714.987-1.106 1.447-.451.536-.849 1.105-1.327 1.624-.5.547-1.015 1.078-1.493 1.646-.473.562-.93 1.147-1.397 1.72-.978 1.2-2.057 2.315-3.035 3.516-.392.482-.79.91-1.246 1.329-.312.29-.698.6-.876 1.002-.096.391-.14.793-.026 1.19.171.622.65 1.174 1.09 1.624.553.573 1.069 1.184 1.6 1.78 1.086 1.205 2.359 2.25 3.578 3.322 1.22 1.072 2.46 2.128 3.814 3.028.714.477 2.315 1.41 2.954.391a.263.263 0 0 1 .135-.112c.402-.483.87-.906 1.337-1.33.553-.498 1.085-1.018 1.617-1.538 1.133-1.104 2.277-2.213 3.32-3.408.977-1.12 1.885-2.3 2.67-3.559.65-1.05 1.154-2.294 2.094-3.13a.282.282 0 0 1 .108-.24c-.011-.006-.017-.022-.033-.049Zm-3.04 1.19c-.005.171-.097.29-.274.316-.548.091-1.069-.091-1.606-.16h-.005c-.398 0-.86-.065-1.236.106-.354.161-.698.333-1.037.53-.333.194-.671.365-.929.655-.22.246-.397.514-.585.788-.28.402-.564.863-1.032 1.072-.467.208-1.026-.113-1.01-.649.011-.268.156-.498.312-.707.107-.14.322-.333.36-.51.102-.52-.64-.466-.913-.262-.42.321-.65.873-.784 1.367-.167.6-.194 1.216-.274 1.838-.102.788-.242 1.57-.452 2.336.204.108.473.13.693.15.317.027.629.022.946.033.644.021 1.359 0 1.971.203.21.07.204.284.097.418a.286.286 0 0 1-.016.188c-.162.391-.446.697-.876.772-.37.064-.741-.032-1.096-.118a17.41 17.41 0 0 0-1.735-.338c-.397-.053-.854-.037-1.192-.284-.237-.171-.328-.456-.322-.74.005-.401.07-.798.064-1.205-.01-1.142-.253-2.267-.398-3.393a.378.378 0 0 1 .006-.112c-.075-.183-.344-.322-.494-.424a3.858 3.858 0 0 1-.57-.455c-.317-.322-.57-.665-.725-1.078-.999.215-2.003.338-3.03.193a5.47 5.47 0 0 1-2.825-1.302c-.172-.15-.102-.37.048-.466.049-.107.156-.183.312-.15.199.048.392.085.59.118 1.306.209 2.654.058 3.793-.638.613-.375 1.096-.874 1.622-1.35.537-.488 1.112-.955 1.757-1.303 1.273-.691 2.782-.933 4.072-.123 1.208.755 1.89 2.02 2.766 3.097.01.006.021.006.032.011.226.091.919.241 1.037-.086.048-.128-.167-.375-.236-.46-.113-.135-.27-.285-.452-.3-.086-.006-.145-.038-.182-.086-.13-.092-.204-.284-.092-.45.602-.896 1.708.096 2.203.584.311.305.633.6.956.895.435.401.762.862.741 1.479Z" fill="#6D7D8A"></path></svg> 