<?xml version="1.0" encoding="UTF-8"?> <svg xmlns="http://www.w3.org/2000/svg" viewBox="0 0 88 17" fill="none"><path d="M76.544 11.069c.129-.09.186-.142.174-.155 0-.013.006-.026.019-.039.064-.128.084-.193.058-.193-.013 0-.013-.013 0-.038.051-.13.09-.239.116-.329a.55.55 0 0 0 .038-.29.747.747 0 0 1 .078-.212.367.367 0 0 0 .019-.116c0-.038.006-.07.02-.096a.585.585 0 0 0 .057-.193c0-.039.02-.071.058-.097.039-.154.064-.27.077-.348.013-.077.032-.148.058-.212a.8.8 0 0 0 .02-.29c0-.064.012-.128.038-.193a.823.823 0 0 0 .116-.367c.013-.154.032-.302.058-.444.026-.167.032-.264.02-.29 0-.038.006-.077.019-.115.025-.13.038-.2.038-.213a1.22 1.22 0 0 0 .058-.348c0-.115.007-.225.02-.328.064-.154.096-.238.096-.25.051-.194.09-.336.116-.426a1.7 1.7 0 0 1 .116-.29.486.486 0 0 0 .058-.115c.026-.039.051-.084.077-.136.052-.115.09-.2.116-.25a.526.526 0 0 0 .232-.136c.025.013.058.02.096.02a.314.314 0 0 1 .155 0c.206.038.367.051.483.038a1.79 1.79 0 0 1 .347-.038h.348c.141 0 .276.012.405.038a.983.983 0 0 0 .193-.02c.065-.012.116-.006.155.02.038.013.07.039.096.077.04.039.071.078.097.116a.208.208 0 0 1 .039.116c0 .026.013.065.038.116a.429.429 0 0 0 .058.135.304.304 0 0 1 .058.077v.232c.013.026.02.052.02.077.012.116.032.187.057.213v.154c.013.026.02.052.02.078 0 .116.006.18.019.193.013.013.02.032.02.058 0 .128.012.219.038.27.026.039.039.09.039.155a.426.426 0 0 0 .058.135c.064.064.096.116.096.154a.483.483 0 0 0 .058.116.75.75 0 0 1 .039.097.592.592 0 0 1 .038.116c.013.077.02.135.02.173 0 .039.006.078.019.116.013.065.02.148.02.251.012.09.025.174.038.251a.425.425 0 0 0 .077.174l.135.135c.026.18.052.322.078.425.012.103.044.18.096.232a.397.397 0 0 0 0 .174 1.1 1.1 0 0 1 .058.193c.026.116.064.225.116.328.026.09.058.168.096.232.013.064.026.122.039.174.026.038.039.09.039.154.051.078.07.136.058.174 0 .039.019.07.058.097.012.064.019.122.019.173.013.052.038.09.077.116 0 .142.007.226.02.251a.73.73 0 0 1 .038.097l.174-.155c.064-.09.09-.141.077-.154 0-.026.013-.045.039-.058.038-.193.07-.335.096-.425a.55.55 0 0 0 .039-.29c.051-.141.077-.231.077-.27 0-.051.007-.096.02-.135a.585.585 0 0 0 .057-.193c0-.052.02-.09.058-.116.039-.142.065-.251.078-.328.012-.09.032-.168.057-.232a.61.61 0 0 0 .02-.251.264.264 0 0 1 .02-.174c.025-.064.05-.135.076-.212a2.6 2.6 0 0 0 .058-.31c.013-.115.032-.231.058-.347.026-.155.033-.251.02-.29v-.096c.051-.13.077-.2.077-.213a.963.963 0 0 0 .038-.367c0-.103.013-.2.04-.29a.75.75 0 0 0 .038-.096.096.096 0 0 0 0-.116 3.71 3.71 0 0 1 .077-.27v-.213c.064-.077.097-.141.097-.193 0-.051.019-.09.057-.116a.645.645 0 0 1-.019-.27c.026-.103.026-.18 0-.232.026-.025.039-.064.039-.116 0-.051.02-.09.058-.115.051-.142.083-.213.096-.213.013 0 .032-.013.058-.039l.27.04c.09.012.18.031.27.057.052.013.097.02.136.02.039 0 .084.006.135.019a.487.487 0 0 1 .116.058c.039.012.084.019.135.019a.395.395 0 0 0 .174 0 .488.488 0 0 1 .193 0c.129.09.206.135.232.135.026 0 .052.007.077.02.116.038.187.057.213.057.038 0 .07.007.096.02.116.064.187.096.213.096.154.039.257.084.309.135a.935.935 0 0 1 .096.058c.039.013.078.02.116.02a.765.765 0 0 0 .097.116c.051.038.09.077.116.115.038.142.019.251-.058.329-.052.141-.071.219-.058.231.013.013.019.033.019.058-.077.116-.122.18-.135.194a.43.43 0 0 0-.058.135.243.243 0 0 1-.058.096 2.004 2.004 0 0 0-.077.251l-.078.27a2.952 2.952 0 0 0-.057.155l-.058.116c-.052.155-.084.232-.097.232l-.02.02c-.05.14-.09.244-.115.308a.757.757 0 0 1-.077.174.178.178 0 0 0 0 .116.449.449 0 0 0-.097.193 1.028 1.028 0 0 1-.077.232c-.013 0-.02.006-.02.019a7.537 7.537 0 0 1-.096.212.215.215 0 0 0-.02.097c-.05.129-.083.2-.096.212a.765.765 0 0 0-.039.097.208.208 0 0 1-.038.116.937.937 0 0 1-.078.212v.039l-.096.232a1.099 1.099 0 0 1-.058.193.748.748 0 0 1-.058.154.988.988 0 0 0-.077.193c0 .039-.007.071-.02.097a5.658 5.658 0 0 1-.057.251 1.071 1.071 0 0 1-.058.135.313.313 0 0 0 0 .155c-.065.026-.097.064-.097.116 0 .038-.006.07-.02.096-.05.168-.09.277-.115.328a.205.205 0 0 0 0 .174c-.052.078-.09.129-.116.155-.013.026-.006.051.02.077-.052.103-.084.16-.097.174v.02l-.077.192a.429.429 0 0 1-.058.135.634.634 0 0 1-.02.155.749.749 0 0 1-.038.097c-.013.103-.02.173-.02.212a1.273 1.273 0 0 1-.096.232.226.226 0 0 0-.039.058l-.096.231a.312.312 0 0 0-.039.136.312.312 0 0 1-.039.135.951.951 0 0 0-.058.231c0 .04-.006.071-.019.097a1.617 1.617 0 0 0-.116.27c0 .052-.006.11-.02.174a2.643 2.643 0 0 1-.057.251.501.501 0 0 1-.02.155 1.092 1.092 0 0 0-.097.444.406.406 0 0 0-.134.212.456.456 0 0 1-.097.213.712.712 0 0 1-.038.174.303.303 0 0 1-.058.077.518.518 0 0 0-.193.038.68.68 0 0 1-.193.097.673.673 0 0 1-.27-.02 2.644 2.644 0 0 0-.33-.019h-.385c-.142 0-.264.007-.367.02-.193 0-.31-.026-.348-.078a2.464 2.464 0 0 0-.135-.193c-.013-.025-.032-.038-.058-.038-.064-.103-.097-.18-.097-.232a1.586 1.586 0 0 1-.115-.232c0-.026-.013-.051-.04-.077l-.038-.193a.73.73 0 0 0-.038-.232 1.255 1.255 0 0 1-.078-.193c0-.026-.006-.045-.019-.058a.444.444 0 0 1-.038-.135.082.082 0 0 0 0-.077 3.331 3.331 0 0 1-.097-.232.131.131 0 0 0-.039-.097c-.051-.18-.09-.309-.116-.386a1.022 1.022 0 0 0-.058-.212.758.758 0 0 1-.077-.232.163.163 0 0 0-.02-.135l-.154-.31a.434.434 0 0 0-.077-.154 2.798 2.798 0 0 1-.096-.27.729.729 0 0 1-.078-.251.733.733 0 0 1-.038-.097.245.245 0 0 0-.058-.116c-.026-.18-.058-.283-.097-.309a1.063 1.063 0 0 1-.038-.212 4.23 4.23 0 0 0-.078-.174.762.762 0 0 0-.038-.096c-.026-.155-.045-.239-.058-.252a.317.317 0 0 0-.02-.096 7.41 7.41 0 0 0-.115-.27l-.039-.078a.92.92 0 0 0-.116-.27c-.038-.052-.051-.11-.038-.174-.04.039-.058.097-.058.174 0 .064-.02.11-.058.135a1.124 1.124 0 0 0-.058.27.238.238 0 0 1-.039.136c-.064.141-.097.231-.097.27a.566.566 0 0 0-.019.135.363.363 0 0 1-.02.116l-.076.193a.205.205 0 0 0 0 .174c-.039.077-.071.135-.097.174-.026.026-.026.051 0 .077l-.097.193a.692.692 0 0 0-.057.174.342.342 0 0 1-.097.155c.013.038.007.083-.02.135a.364.364 0 0 0-.019.116l-.058.212c-.025.077-.058.161-.096.251a1.037 1.037 0 0 1-.077.232c-.013.013-.02.026-.02.039a1.251 1.251 0 0 1-.058.193.317.317 0 0 1-.019.096.584.584 0 0 0-.058.193.365.365 0 0 1-.02.116 2.51 2.51 0 0 0-.096.27c0 .04-.013.09-.038.155l-.039.232-.077.27a1.242 1.242 0 0 0-.078.367.997.997 0 0 0-.135.212.187.187 0 0 1-.038.097c-.052.116-.071.174-.058.174.026 0 .038.013.038.039a1.073 1.073 0 0 1-.521.27.752.752 0 0 1-.212.058.178.178 0 0 1-.116 0c-.22-.026-.4-.02-.541.02a.948.948 0 0 1-.425.018 1.804 1.804 0 0 1-.135-.038.269.269 0 0 0-.116-.02c-.103-.103-.154-.16-.154-.173.012 0 .012-.013 0-.039a.825.825 0 0 0-.194-.154.878.878 0 0 1-.096-.174c.013-.013.013-.032 0-.058-.077-.129-.116-.226-.116-.29a.565.565 0 0 1-.039-.212.566.566 0 0 0-.038-.213c-.052-.141-.084-.212-.097-.212v-.039a.466.466 0 0 1-.058-.154.082.082 0 0 0 0-.078 7.038 7.038 0 0 1-.077-.212.13.13 0 0 0-.058-.116 1.357 1.357 0 0 0-.116-.367 3.885 3.885 0 0 0-.077-.212.949.949 0 0 1-.058-.232.474.474 0 0 0-.039-.174l-.193-.425a.844.844 0 0 1-.077-.154.238.238 0 0 0-.039-.135 2.156 2.156 0 0 0-.116-.348.242.242 0 0 0-.058-.096c.026-.104.02-.155-.019-.155-.025-.013-.032-.032-.02-.058l-.038-.212-.116-.213a1.322 1.322 0 0 1-.077-.25.216.216 0 0 0-.02-.097c-.038-.142-.07-.226-.096-.252a.243.243 0 0 0-.058-.096 4.7 4.7 0 0 0-.096-.232c0-.025-.013-.038-.039-.038a3.107 3.107 0 0 1-.058-.251.082.082 0 0 0 0-.078l-.038-.116a.238.238 0 0 0-.039-.135.858.858 0 0 1-.058-.154c.013-.026 0-.045-.039-.058a.427.427 0 0 0-.019-.135v-.097l-.077-.251a.463.463 0 0 1-.097-.27.93.93 0 0 1-.096-.232.171.171 0 0 0-.02-.077l-.077-.116a.162.162 0 0 1-.02-.135l-.115-.194c-.039-.115-.064-.173-.077-.173v-.039a4.225 4.225 0 0 0-.116-.367c-.09-.154-.135-.245-.135-.27a1.9 1.9 0 0 1-.097-.155.304.304 0 0 0-.058-.077c-.038-.142-.07-.219-.096-.232a.083.083 0 0 1 0-.077 1.395 1.395 0 0 0-.174-.367 2.617 2.617 0 0 1-.116-.251.344.344 0 0 0-.097-.097.28.28 0 0 1-.019-.173.988.988 0 0 0-.02-.194l-.038-.115a.163.163 0 0 1-.02-.136.13.13 0 0 1 .117-.058l.116-.038a.86.86 0 0 1 .212-.077.172.172 0 0 0 .077-.02c.18-.064.316-.103.406-.116a.218.218 0 0 1 .154-.019.383.383 0 0 0 .174-.039c.193-.064.316-.096.367-.096.052-.013.11-.026.174-.039l.232-.058c.206-.051.347-.083.424-.096.09-.026.174-.052.251-.077.065-.013.116-.026.155-.04l.174-.038c.026-.013.064 0 .116.039.051.026.083.051.096.077.026.142.058.213.097.213-.026.025-.032.064-.02.115.026.04.046.071.058.097.026.18.052.303.078.367.038.167.058.303.058.406l.038.27a.677.677 0 0 1 .078.193c.012.026.019.052.019.077.013.052.02.097.02.135.012.04.025.09.038.155.025.129.038.212.038.251l.039.116c.026.039.026.084 0 .135a.516.516 0 0 1 .039.193c0 .052.012.103.038.155.052.128.078.206.078.231 0 .026.006.052.019.078.051.116.07.186.058.212 0 .013.006.032.02.058.012.052.018.11.018.174 0 .051.007.103.02.154l.038.116.039.116a.516.516 0 0 1 .039.193c0 .052.012.103.038.155a.437.437 0 0 0 .116.27.263.263 0 0 0-.02.174.518.518 0 0 1 .04.193c.025.064.044.122.057.174.013.038.032.09.058.154a.43.43 0 0 1 .058.136c.013.038.032.07.058.096.013.064.026.122.039.174.013.039.025.09.038.154.052.065.071.116.058.155 0 .039.02.077.058.116.013.064.026.122.039.174.013.051.032.09.058.115.026.18.045.284.058.31ZM.315 1.51a1.05 1.05 0 0 1 .329-.078.528.528 0 0 0 .116-.02c.064-.012.115-.025.154-.038.09-.026.161-.013.212.039a.677.677 0 0 1 .213-.039c.129.013.212.02.251.02a.318.318 0 0 1 .097-.02c.103 0 .2.007.29.02.102 0 .205-.013.308-.04a.134.134 0 0 0 .135.04.718.718 0 0 1 .174-.02h.232a.318.318 0 0 1 .097-.02c.103.027.167.04.193.04a.171.171 0 0 1 .077-.02c.09-.013.167 0 .232.039.077.025.154.045.231.058a.847.847 0 0 1 .155.154c.09.103.135.18.135.232 0 .039.013.07.039.096a.218.218 0 0 0 .019.155c.026.039.032.09.02.154-.014.116-.02.194-.02.232.013.026.02.052.02.077a1.3 1.3 0 0 1-.02.213.412.412 0 0 0 .02.212 3.993 3.993 0 0 1-.078.502.91.91 0 0 0 .02.425c-.052.09-.071.142-.059.155a.225.225 0 0 1 .04.058.343.343 0 0 0-.04.154c.013.052.026.11.04.174a.69.69 0 0 0-.059.174v.193a.542.542 0 0 1-.02.251.449.449 0 0 0-.018.232c-.013.219-.02.438-.02.656 0 .206-.006.4-.02.58 0 .103-.012.206-.038.309a1.746 1.746 0 0 0 0 .367c.013.103.02.2.02.29v.25a.635.635 0 0 1-.02.155v.135c.013.142.02.277.02.406 0 .128.012.257.038.386l.02.251a.428.428 0 0 0-.02.135c.013.039.02.077.02.116v.174c.012.013.019.032.019.058a.365.365 0 0 1-.02.116v.116c.013.167.04.27.078.309.013.103.013.2 0 .29 0 .09.006.18.02.27.038.141.05.231.038.27v.097c-.013.167-.007.315.019.444.026.128.039.231.039.309v.231l-.02.252c.026.128.078.199.155.212.09.013.154.013.193 0l.29.077c.064.013.115.026.154.039.052 0 .11.006.174.02.09-.027.154-.033.193-.02.039 0 .058-.02.058-.058.064.039.16.058.29.058.128-.013.244-.013.347 0h.232c.052 0 .09-.013.116-.039.103.013.225.02.367.02.154 0 .27-.013.347-.04a.93.93 0 0 0 .29.04c.129-.013.238-.026.328-.04a.482.482 0 0 1 .194 0c.051.014.083.014.096 0a.782.782 0 0 1 .328-.038c.103.052.161.071.174.058.026-.026.052-.026.078 0a.257.257 0 0 1 .096.116c.013.039.032.07.058.097a.312.312 0 0 0 .02.193.205.205 0 0 1 0 .174c-.04.128-.072.2-.097.212a.224.224 0 0 0-.039.058.828.828 0 0 0-.058.193c.013.026.007.058-.02.097-.064.141-.102.225-.115.25a.225.225 0 0 0-.039.059c-.064.141-.096.231-.096.27a.475.475 0 0 0-.077.212c-.103.13-.155.206-.155.232a.172.172 0 0 1-.02.077 1.867 1.867 0 0 1-.038.136.946.946 0 0 1-.058.096 1.903 1.903 0 0 0-.096.155.172.172 0 0 1-.02.077c-.064.09-.096.154-.096.193-.065.103-.11.167-.135.193-.052.09-.09.129-.116.116-.026 0-.039.013-.039.039-.103.051-.167.07-.193.058a.171.171 0 0 0-.077-.02c-.052.026-.135.026-.251 0a.717.717 0 0 0-.174.02.282.282 0 0 1-.174-.02.444.444 0 0 0-.135-.038.171.171 0 0 1-.077.019h-.174a.28.28 0 0 1-.174-.02.127.127 0 0 1-.116.02H5.28a6.65 6.65 0 0 1-.27-.058c-.155.026-.245.026-.271 0a1.057 1.057 0 0 0-.406 0c-.077.026-.135.032-.173.02a.171.171 0 0 0-.078-.02.81.81 0 0 1-.135.02.215.215 0 0 1-.096.019 2.903 2.903 0 0 0-.213-.02c-.026 0-.039-.006-.039-.019a2.048 2.048 0 0 0-.29-.02H3a.364.364 0 0 0-.116-.019.207.207 0 0 1-.116-.038.932.932 0 0 0-.232-.097.171.171 0 0 0-.077-.02.772.772 0 0 1-.116-.096.807.807 0 0 0-.154-.116.709.709 0 0 1-.136-.173c-.103-.116-.16-.174-.173-.174-.013-.013-.02-.032-.02-.058a.517.517 0 0 0-.135-.097.453.453 0 0 1-.096-.154.291.291 0 0 1-.116-.097 2.633 2.633 0 0 0-.097-.174c-.129-.103-.187-.154-.174-.154-.038-.077-.07-.122-.096-.135a.303.303 0 0 0-.058-.078 2.12 2.12 0 0 1-.251-.347c-.026-.09-.077-.148-.155-.174 0-.064-.019-.103-.058-.116l-.077-.077c-.051-.116-.084-.174-.096-.174-.013-.013-.02-.032-.02-.058 0-.116.007-.187.02-.212a.215.215 0 0 0 .019-.097 1.395 1.395 0 0 1-.058-.483c-.039-.051-.052-.103-.039-.154.026-.052.013-.09-.038-.116.013-.18.019-.348.019-.502a2.631 2.631 0 0 1-.02-.232v-.096a.364.364 0 0 0 .02-.116v-.232c0-.09.006-.18.02-.27l.038-.116a.319.319 0 0 0 .02-.097V10.2a.149.149 0 0 0 .019-.058 1.055 1.055 0 0 1-.058-.135V9.91c0-.039.006-.077.019-.116a.364.364 0 0 0 .02-.116l-.059-.212v-.213a1.564 1.564 0 0 0 0-.347c0-.142.007-.27.02-.386.051-.194.07-.329.058-.406a3.524 3.524 0 0 0-.058-.27c.038-.142.051-.232.038-.27a.364.364 0 0 1-.02-.117c.014-.128.014-.2 0-.212v-.077a.402.402 0 0 0-.018-.155.365.365 0 0 1-.02-.116c.026-.115.039-.18.039-.193a.171.171 0 0 0 .02-.077l-.02-.232-.02-.29a2.832 2.832 0 0 1-.019-.308c-.025-.245-.025-.425 0-.541.026-.116.007-.213-.058-.29.026-.116.039-.2.039-.25 0-.052.006-.11.02-.175.012-.154.012-.238 0-.25v-.059c.025-.154.025-.27 0-.347a1.91 1.91 0 0 1-.02-.27c-.013-.13-.02-.2-.02-.213a.171.171 0 0 0 .02-.077.428.428 0 0 1-.02-.136.983.983 0 0 0-.019-.463.685.685 0 0 0-.019-.29 1.91 1.91 0 0 1-.02-.27.469.469 0 0 1 0-.193.428.428 0 0 0 .02-.135c-.013-.078-.006-.136.02-.174a.164.164 0 0 0 0-.155ZM12.752 3.112c-.025-.013-.064-.006-.115.02a.318.318 0 0 1-.097.019.875.875 0 0 0-.27 0 .317.317 0 0 1-.097.02.364.364 0 0 1-.116-.02.428.428 0 0 0-.135-.02l-.29.04h-.328l-.116-.04a.364.364 0 0 0-.116-.019.274.274 0 0 0-.154.039.24.24 0 0 1-.135 0c-.116.026-.206.045-.27.058a.334.334 0 0 1-.194-.02c-.154-.038-.238-.064-.251-.077 0-.026-.013-.045-.039-.058-.077-.064-.115-.103-.115-.116a.082.082 0 0 0 0-.077 1.443 1.443 0 0 1-.04-.309 1.241 1.241 0 0 0 0-.309.718.718 0 0 0-.018-.174l-.039-.154a2.611 2.611 0 0 0-.058-.27.778.778 0 0 0 .058-.31c.103-.115.16-.186.174-.212.013-.026.045-.045.096-.058.09-.051.142-.07.155-.058a.58.58 0 0 1 .096.02c.116-.026.194-.04.232-.04a.364.364 0 0 1 .116-.018h.193a.171.171 0 0 1 .077-.02c.103 0 .161.007.174.02h.077c.065.012.123.019.174.019a.635.635 0 0 1 .155-.02c.038 0 .077.007.116.02.038.013.07.02.096.02.065-.014.11-.014.135 0 .026.012.052.018.078.018a.428.428 0 0 0 .135-.019.238.238 0 0 1 .135-.038c.142.025.232.038.27.038a.83.83 0 0 1 .155.02.39.39 0 0 0 .154.173c.052.142.071.213.058.213v.019c.026.193.032.335.02.425a.57.57 0 0 0 .019.25c-.026.027-.039.065-.039.117.013.038.02.083.02.135a.566.566 0 0 1-.02.135.364.364 0 0 0-.019.116c.026.245-.006.412-.097.502ZM10.01 15.588a3.774 3.774 0 0 1-.039-.483c0-.129.013-.257.04-.386a.364.364 0 0 1-.02-.116.316.316 0 0 0 .02-.097.758.758 0 0 0 .076-.231l.039-.348v-.096a.364.364 0 0 0 .02-.116 6.845 6.845 0 0 1-.02-.232l.058-.522a1.566 1.566 0 0 0 0-.347v-.348c0-.129-.006-.193-.02-.193-.012-.013-.019-.026-.019-.039a4.785 4.785 0 0 1-.019-.386 1.166 1.166 0 0 1 0-.425c.052-.128.058-.219.02-.27a2.228 2.228 0 0 1-.078-.483 2.66 2.66 0 0 1-.02-.232.634.634 0 0 0-.019-.154c-.025-.155-.032-.251-.019-.29a.317.317 0 0 0 .02-.096.634.634 0 0 0-.02-.155c0-.051.013-.11.039-.174a.71.71 0 0 0-.02-.27V8.79a2.54 2.54 0 0 0-.019-.348 8.8 8.8 0 0 1-.02-.25c.014-.014.02-.026.02-.04a1.125 1.125 0 0 1-.058-.27.314.314 0 0 0 0-.154c0-.129-.013-.238-.038-.329l-.02-.231a1.336 1.336 0 0 0-.038-.155 3.774 3.774 0 0 1-.078-.425c.013-.013.013-.032 0-.058.026-.038.026-.096 0-.173a.635.635 0 0 1-.038-.193 3.748 3.748 0 0 1-.02-.232v-.116a.718.718 0 0 0 .02-.174 1.53 1.53 0 0 1-.02-.251c0-.103.013-.206.039-.309a.633.633 0 0 1 .097-.077c.051-.026.096-.052.135-.077.103-.026.167-.033.193-.02h.077c.155-.026.283-.051.386-.077a.856.856 0 0 0 .27.039c.104-.013.194-.02.271-.02a.334.334 0 0 1 .193-.019.587.587 0 0 0 .213 0l.232.02c.115-.026.173-.033.173-.02h.058c.142-.013.206-.02.193-.02l.02.02a.82.82 0 0 1 .25.077.43.43 0 0 0 .155.058c.077.142.116.232.116.27.013.04.026.09.039.155a.367.367 0 0 1-.02.116c0 .026.007.058.02.096.013.103.013.161 0 .174v.058c.013.026.013.065 0 .116v.116l.038.193c.026.064.032.116.02.155a.612.612 0 0 0 .019.25.717.717 0 0 1-.02.174c0 .052.013.11.04.174a.544.544 0 0 0-.02.251.818.818 0 0 1 0 .251.634.634 0 0 1-.02.155v.135a3.777 3.777 0 0 1-.038.174v.135c0 .039.006.084.02.135.012.052.019.097.019.135l-.039.541a4.9 4.9 0 0 1-.02.444v.232a.384.384 0 0 1-.038.174.81.81 0 0 1-.02.193v.097c0 .218.007.405.02.56.013.154.02.309.02.463 0 .103-.007.193-.02.27a.818.818 0 0 0 0 .252c.039.154.052.257.039.309 0 .051.006.109.019.173.013.13.02.22.02.27.012.052.019.13.019.232v.329a.456.456 0 0 0 .096.212.333.333 0 0 0-.02.193c.014.065.02.13.02.194a.178.178 0 0 1 0 .115.178.178 0 0 0 0 .116v.116c.013.039.02.07.02.097.025.141.038.219.038.231l.02.039c.012.27.038.45.077.54 0 .065.013.149.038.252.026.154.039.257.039.309a.309.309 0 0 1 0 .154l-.135.174c-.116.116-.213.174-.29.174-.154.039-.257.051-.309.039a.207.207 0 0 0-.116.038c-.103 0-.16-.006-.174-.02h-.038a2.086 2.086 0 0 0-.27-.038c-.155.026-.239.032-.252.02-.012-.013-.032-.02-.058-.02a.761.761 0 0 1-.25 0h-.117c-.128.039-.212.052-.25.039h-.348a.335.335 0 0 1-.193-.02.406.406 0 0 1-.213-.057c-.09-.09-.141-.136-.154-.136l-.02-.019-.019-.077ZM18.894 4.792a1.3 1.3 0 0 0 .212.02.567.567 0 0 0 .213-.039c.141.039.219.058.231.058a.172.172 0 0 1 .078-.02.657.657 0 0 0 .212-.019.172.172 0 0 1 .077-.019c.142.052.245.077.31.077a.312.312 0 0 1 .192.02c.09.128.142.206.155.231.013.013.02.033.02.058a1.743 1.743 0 0 0-.059.29c0 .039.013.07.039.097a.642.642 0 0 0-.02.27c.013.09.02.187.02.29a.533.533 0 0 1-.02.115v.483c.013.065.02.168.02.31-.013.205-.02.353-.02.443a.303.303 0 0 1-.038.213c-.09.116-.161.18-.212.193-.052.013-.11.032-.174.058-.206-.039-.374-.052-.502-.039h-.367a1.25 1.25 0 0 0-.29.02c-.026.012-.052.006-.077-.02-.026.09-.045.18-.058.27 0 .09-.007.18-.02.271 0 .103-.006.206-.019.309 0 .09.013.18.039.27l-.02.445c.013.141.013.218 0 .231v.058c0 .155.007.238.02.251.013 0 .02.013.02.039v.251c0 .039.005.09.018.155 0 .193.013.34.039.444 0 .09-.006.154-.02.193 0 .038.014.07.04.096l-.02.387.039.25v.117c.012.038.025.083.038.135l.078.27c.025.116.051.206.077.27.038.052.084.09.135.116a.48.48 0 0 0 .116.213c.129.025.193.051.193.077.013.026.032.039.058.039.064.025.11.045.135.058.026 0 .052.013.077.038a.128.128 0 0 1 .116.02c.039.012.084.025.135.038h.097a.566.566 0 0 1 .135-.02c.142.04.251.059.328.059.078-.013.148-.02.213-.02h.212c.039.207.045.342.02.406-.052.064-.078.11-.078.135 0 .026-.019.045-.058.058a1.18 1.18 0 0 0-.057.251.312.312 0 0 1-.04.135.675.675 0 0 1-.057.194c-.013 0-.02.006-.02.019a.972.972 0 0 1-.038.232c-.052.09-.084.135-.097.135-.012 0-.025.013-.038.038a.644.644 0 0 1-.039.155.223.223 0 0 0-.038.058c-.04.116-.058.18-.058.193l-.02.02a.759.759 0 0 0-.058.154.343.343 0 0 1-.038.154 1.26 1.26 0 0 1-.078.135.45.45 0 0 0-.077.116.855.855 0 0 0-.154.078.345.345 0 0 1-.097.096c-.103 0-.16.006-.174.02 0 .012-.012.019-.038.019a.242.242 0 0 0-.135 0 .215.215 0 0 1-.097.019c-.142.026-.238.026-.29 0a1.744 1.744 0 0 1-.424-.097.585.585 0 0 1-.174-.019h-.078a1.024 1.024 0 0 1-.212-.058.989.989 0 0 0-.193-.02.18.18 0 0 0-.135-.096 1.096 1.096 0 0 1-.193-.058c-.142-.051-.22-.07-.232-.057a.147.147 0 0 1-.058-.02.312.312 0 0 1-.135-.038l-.116-.078a1.26 1.26 0 0 1-.135-.077.449.449 0 0 0-.116-.077.63.63 0 0 0-.078-.097c-.012-.026-.051-.038-.115-.038a.444.444 0 0 0-.116-.136.3.3 0 0 1-.078-.058 1.252 1.252 0 0 1-.135-.27.187.187 0 0 0-.077-.116.736.736 0 0 0-.077-.193.187.187 0 0 0-.077-.116.405.405 0 0 0-.058-.212c-.039-.077-.045-.148-.02-.213-.013-.219-.07-.38-.174-.482 0-.103-.006-.161-.019-.174-.013-.013-.02-.032-.02-.058v-.097a.566.566 0 0 0 .02-.135c.013-.026.013-.058 0-.097a.526.526 0 0 1-.02-.115c0-.22-.005-.335-.018-.348v-.232a.364.364 0 0 0 .019-.116v-.231a3.398 3.398 0 0 0-.039-.27.988.988 0 0 0-.019-.194v-.212a.214.214 0 0 0-.02-.097.367.367 0 0 1-.019-.116c.039-.128.052-.212.039-.25a3.765 3.765 0 0 1-.039-.175v-.27a.309.309 0 0 0 0-.154c0-.18-.006-.348-.019-.503 0-.154.006-.315.02-.482.012-.13.012-.2 0-.213v-.386a.834.834 0 0 0-.02-.309.162.162 0 0 0 .02-.135.335.335 0 0 1 .019-.193.269.269 0 0 0-.116-.02c-.052-.013-.09-.006-.116.02a.352.352 0 0 0-.193-.02.53.53 0 0 1-.116.02c-.142.013-.232.019-.27.019-.026 0-.052.02-.078.058-.026-.026-.064-.032-.116-.02a.131.131 0 0 1-.096-.038c-.116-.064-.187-.097-.213-.097a.171.171 0 0 1-.077-.019c-.026-.129-.058-.212-.096-.25a.688.688 0 0 1-.058-.175.32.32 0 0 0-.02-.096c0-.052.007-.09.02-.116.012-.077.012-.129 0-.155l-.039-.077a4.138 4.138 0 0 1-.02-.27.427.427 0 0 0 .02-.135.98.98 0 0 1-.02-.116.215.215 0 0 0 .02-.097c0-.103-.006-.16-.02-.174a.083.083 0 0 1 0-.077c-.012-.129-.012-.206 0-.232a.577.577 0 0 0 0-.212v-.251a1.06 1.06 0 0 0 0-.29.264.264 0 0 1 .02-.174c.129-.141.193-.219.193-.231.155.025.245.038.27.038.04 0 .078.013.116.039a.445.445 0 0 0 .174.058.134.134 0 0 1 .135.038.707.707 0 0 1 .329 0 .792.792 0 0 0 .347 0 .487.487 0 0 0 0-.193.31.31 0 0 1 0-.154c-.013-.09-.019-.2-.019-.329.013-.128.02-.238.02-.328l-.04-.212c.014-.013.02-.026.02-.039-.013-.154-.026-.238-.039-.251 0-.09-.019-.174-.058-.251a.215.215 0 0 1-.019-.097v-.116c-.039-.064-.058-.109-.058-.135a.128.128 0 0 0-.02-.116.24.24 0 0 0 0-.135.566.566 0 0 1-.018-.135.76.76 0 0 0-.02-.232v-.077c0-.064.007-.122.02-.174a.692.692 0 0 0 .057-.174c-.051-.115-.07-.186-.057-.212.012-.026.012-.058 0-.097a.605.605 0 0 1 .154-.115.897.897 0 0 0 .174-.136.314.314 0 0 0 .154 0 .635.635 0 0 1 .155-.019h.25a.172.172 0 0 1 .078-.02l.29.02c.038 0 .077.007.116.02.038 0 .07-.007.096-.02.155-.026.245-.032.27-.02.04 0 .072-.006.097-.019h.31c.09.013.173.02.25.02.09 0 .18.006.27.02.052 0 .097.006.136.018.051.013.11.013.174 0 .128.065.2.103.212.116.026.013.039.039.039.078.116.077.167.122.154.135 0 .013.007.025.02.038a.13.13 0 0 1 .057.116c.013.052.013.09 0 .116-.025.155-.032.245-.019.27.013.026.02.052.02.078-.013.141-.02.225-.02.25.013.026.02.052.02.078l-.04.155-.038.154a.906.906 0 0 1 0 .27.317.317 0 0 0-.02.097c0 .116-.005.18-.018.193-.013.013-.02.032-.02.058-.013.103-.019.212-.019.328v.348l-.039.193a4.712 4.712 0 0 0-.039.463.394.394 0 0 1 0 .174ZM26.136 4.792a1.3 1.3 0 0 0 .212.02.567.567 0 0 0 .213-.039c.141.039.218.058.231.058a.172.172 0 0 1 .078-.02.657.657 0 0 0 .212-.019.172.172 0 0 1 .077-.019c.142.052.245.077.31.077a.312.312 0 0 1 .192.02c.09.128.142.206.155.231.013.013.02.033.02.058a1.748 1.748 0 0 0-.059.29c0 .039.013.07.039.097a.642.642 0 0 0-.02.27c.014.09.02.187.02.29a.533.533 0 0 1-.02.115v.483c.014.065.02.168.02.31-.013.205-.02.353-.02.443a.303.303 0 0 1-.038.213c-.09.116-.16.18-.212.193-.052.013-.11.032-.174.058-.206-.039-.374-.052-.502-.039h-.367a1.25 1.25 0 0 0-.29.02c-.026.012-.051.006-.077-.02-.026.09-.045.18-.058.27 0 .09-.007.18-.02.271 0 .103-.006.206-.019.309 0 .09.013.18.039.27l-.02.445c.013.141.013.218 0 .231v.058c0 .155.007.238.02.251.013 0 .02.013.02.039v.251c0 .039.006.09.018.155 0 .193.013.34.04.444 0 .09-.007.154-.02.193 0 .038.013.07.038.096l-.019.387.039.25v.117c.013.038.026.083.038.135l.078.27c.025.116.051.206.077.27.038.052.084.09.135.116a.48.48 0 0 0 .116.213c.129.025.193.051.193.077.013.026.032.039.058.039.064.025.11.045.135.058.026 0 .052.013.077.038a.128.128 0 0 1 .116.02c.039.012.084.025.136.038h.096a.567.567 0 0 1 .135-.02c.142.04.251.059.329.059.077-.013.148-.02.212-.02h.212c.039.207.046.342.02.406-.052.064-.078.11-.078.135 0 .026-.019.045-.058.058a1.18 1.18 0 0 0-.057.251.312.312 0 0 1-.039.135.675.675 0 0 1-.058.194c-.013 0-.02.006-.02.019a.977.977 0 0 1-.038.232c-.051.09-.084.135-.096.135-.013 0-.026.013-.04.038a.644.644 0 0 1-.038.155.223.223 0 0 0-.038.058c-.039.116-.058.18-.058.193l-.02.02a.753.753 0 0 0-.058.154.342.342 0 0 1-.038.154 1.26 1.26 0 0 1-.077.135.45.45 0 0 0-.078.116.862.862 0 0 0-.154.078.344.344 0 0 1-.097.096c-.103 0-.16.006-.173.02 0 .012-.013.019-.04.019a.242.242 0 0 0-.134 0 .215.215 0 0 1-.097.019c-.142.026-.238.026-.29 0a1.744 1.744 0 0 1-.424-.097.586.586 0 0 1-.174-.019h-.078a1.02 1.02 0 0 1-.212-.058.989.989 0 0 0-.193-.02.18.18 0 0 0-.135-.096 1.1 1.1 0 0 1-.193-.058c-.142-.051-.22-.07-.232-.057a.148.148 0 0 1-.058-.02.312.312 0 0 1-.135-.038l-.116-.078a1.26 1.26 0 0 1-.135-.077.449.449 0 0 0-.116-.077.637.637 0 0 0-.077-.097c-.013-.026-.052-.038-.116-.038a.442.442 0 0 0-.116-.136.3.3 0 0 1-.077-.058 1.247 1.247 0 0 1-.136-.27.187.187 0 0 0-.077-.116.736.736 0 0 0-.077-.193.187.187 0 0 0-.077-.116.406.406 0 0 0-.058-.212c-.039-.077-.045-.148-.02-.213-.012-.219-.07-.38-.173-.482 0-.103-.007-.161-.02-.174-.013-.013-.019-.032-.019-.058v-.097a.571.571 0 0 0 .02-.135c.012-.026.012-.058 0-.097a.526.526 0 0 1-.02-.115c0-.22-.006-.335-.02-.348v-.232a.367.367 0 0 0 .02-.116v-.231a3.343 3.343 0 0 0-.039-.27.98.98 0 0 0-.019-.194v-.212a.214.214 0 0 0-.02-.097.364.364 0 0 1-.019-.116c.039-.128.052-.212.039-.25a3.91 3.91 0 0 1-.039-.175v-.27a.309.309 0 0 0 0-.154c0-.18-.006-.348-.019-.503 0-.154.006-.315.02-.482.012-.13.012-.2 0-.213v-.386a.837.837 0 0 0-.02-.309.163.163 0 0 0 .02-.135.334.334 0 0 1 .019-.193.269.269 0 0 0-.116-.02c-.052-.013-.09-.006-.116.02a.352.352 0 0 0-.193-.02.53.53 0 0 1-.116.02c-.142.013-.232.019-.27.019-.026 0-.052.02-.078.058-.025-.026-.064-.032-.116-.02a.131.131 0 0 1-.096-.038c-.116-.064-.187-.097-.212-.097a.172.172 0 0 1-.078-.019c-.026-.129-.058-.212-.096-.25a.688.688 0 0 1-.058-.175.317.317 0 0 0-.02-.096.27.27 0 0 1 .02-.116c.013-.077.013-.129 0-.155a27.789 27.789 0 0 0-.039-.077 4.063 4.063 0 0 1-.02-.27.427.427 0 0 0 .02-.135.957.957 0 0 1-.02-.116.215.215 0 0 0 .02-.097c0-.103-.006-.16-.02-.174a.082.082 0 0 1 0-.077c-.012-.129-.012-.206 0-.232a.577.577 0 0 0 0-.212v-.251a1.06 1.06 0 0 0 0-.29.263.263 0 0 1 .02-.174c.129-.141.193-.219.193-.231.155.025.245.038.27.038.04 0 .078.013.116.039a.445.445 0 0 0 .174.058.134.134 0 0 1 .136.038.707.707 0 0 1 .328 0 .792.792 0 0 0 .347 0 .487.487 0 0 0 0-.193.309.309 0 0 1 0-.154c-.012-.09-.019-.2-.019-.329.013-.128.02-.238.02-.328l-.04-.212c.014-.013.02-.026.02-.039-.013-.154-.026-.238-.039-.251 0-.09-.019-.174-.058-.251a.216.216 0 0 1-.019-.097v-.116c-.038-.064-.058-.109-.058-.135a.128.128 0 0 0-.019-.116.24.24 0 0 0 0-.135.566.566 0 0 1-.02-.135.76.76 0 0 0-.019-.232v-.077c0-.064.007-.122.02-.174a.692.692 0 0 0 .058-.174c-.052-.115-.071-.186-.058-.212.012-.026.012-.058 0-.097a.605.605 0 0 1 .154-.115.9.9 0 0 0 .174-.136.314.314 0 0 0 .154 0 .635.635 0 0 1 .155-.019h.251a.172.172 0 0 1 .077-.02l.29.02c.039 0 .077.007.116.02.038 0 .07-.007.096-.02.155-.026.245-.032.27-.02.04 0 .072-.006.097-.019h.31c.09.013.173.02.25.02.09 0 .18.006.27.02.052 0 .097.006.136.018.051.013.11.013.174 0 .128.065.2.103.212.116.026.013.039.039.039.078.116.077.167.122.154.135 0 .013.007.025.02.038a.13.13 0 0 1 .058.116c.012.052.012.09 0 .116-.026.155-.033.245-.02.27.013.026.02.052.02.078-.013.141-.02.225-.02.25.013.026.02.052.02.078l-.04.155-.038.154a.906.906 0 0 1 0 .27.317.317 0 0 0-.019.097c0 .116-.006.18-.02.193-.012.013-.019.032-.019.058-.012.103-.019.212-.019.328v.348l-.039.193a4.64 4.64 0 0 0-.039.463.394.394 0 0 1 0 .174ZM32.547 1.026a.238.238 0 0 1 .04.136.75.75 0 0 0 .038.096c.013.103.026.187.038.251a.204.204 0 0 1 0 .174c.026.155.033.232.02.232V2.243a5.752 5.752 0 0 0-.058.251v.116c.013.026.019.058.019.097-.013.115-.02.18-.02.193.014.013.02.025.02.038a.427.427 0 0 1-.02.136.364.364 0 0 0-.019.115.566.566 0 0 0-.019.136.24.24 0 0 1 0 .135.269.269 0 0 0-.02.116.31.31 0 0 1 0 .154c0 .077-.006.155-.019.232a.808.808 0 0 0 0 .251.882.882 0 0 1-.019.232v.077c0 .064.007.122.02.174a.218.218 0 0 1-.02.154c.026.052.032.11.02.174v.193c-.026.18-.04.322-.04.425 0 .103.014.187.04.251a.577.577 0 0 0-.059.328c.026.103.04.213.04.329a.88.88 0 0 0 0 .27c.012.026.018.058.018.097a2.365 2.365 0 0 0-.038.309c-.026.128-.039.2-.039.212.013.013.02.026.02.039l-.04.212c-.012.129-.018.206-.018.232.012.013.019.026.019.039 0 .103-.007.212-.02.328a2.21 2.21 0 0 0-.019.27l.02.232c-.013.116-.013.18 0 .193.012 0 .019.013.019.039 0 .283-.007.508-.02.676v.482c.014.155.02.252.02.29.013.026.02.052.02.077a.24.24 0 0 1 0 .136.427.427 0 0 0-.02.135v.135c.013.039.02.084.02.135v.213c0 .025.012.038.038.038a.497.497 0 0 0-.02.31 1.594 1.594 0 0 1 .02.598c0 .064.013.129.038.193a.5.5 0 0 0-.057.367c.025.141.045.283.057.425a.365.365 0 0 1-.019.116c0 .038.007.077.02.115v.232c.012.078.025.148.038.213.026.167.045.27.058.309.013.038.026.083.039.135v.212c.025.13.032.206.019.232-.013.013-.013.045 0 .097.013.128.013.206 0 .231.013.142.026.22.039.232.013 0 .019.013.019.039a.312.312 0 0 1-.039.135c-.013.039-.006.084.02.135a1.91 1.91 0 0 0-.155.135c-.026.052-.09.084-.193.097a.685.685 0 0 1-.232 0h-.116a.317.317 0 0 0-.096.02l-.116.038a.364.364 0 0 1-.116-.02h-.096a8.631 8.631 0 0 0-.252-.019c-.012.013-.032.02-.058.02h-.405c-.09-.013-.148-.013-.174 0-.013.012-.032.019-.058.019-.27.025-.495.006-.676-.058a16.734 16.734 0 0 0-.29-.077h-.096c-.103-.142-.167-.22-.193-.232l-.039-.077-.077-.387c0-.077-.006-.148-.02-.212.014-.077.014-.129 0-.155a.81.81 0 0 1 .02-.135 1.38 1.38 0 0 0 .039-.29c.038-.205.07-.321.096-.347-.026-.051-.032-.097-.02-.135a.492.492 0 0 0 .059-.116c0-.142.006-.225.02-.251a.17.17 0 0 0 .018-.077.501.501 0 0 0-.019-.155.32.32 0 0 1-.02-.096c.027-.103.04-.18.04-.232 0-.078-.007-.148-.02-.213a.591.591 0 0 1 0-.212c.026-.103.032-.161.02-.174v-.077c.025-.142.032-.213.019-.213v-.038c0-.065.013-.135.038-.213V10.798a.535.535 0 0 1 .058-.212.164.164 0 0 0 0-.155c-.025-.102-.025-.173 0-.212.013-.154.02-.245.02-.27a.171.171 0 0 0 .019-.078v-.25c.013-.026.013-.065 0-.116-.039-.155-.052-.245-.039-.27.013-.027-.006-.033-.058-.02.013-.116.02-.187.02-.213v-.309a.317.317 0 0 0 .019-.096c.013-.026.013-.065 0-.116a4.569 4.569 0 0 1-.02-.348 2.21 2.21 0 0 0-.019-.27.43.43 0 0 0-.019-.135.717.717 0 0 1-.02-.174 1.088 1.088 0 0 1 0-.29.29.29 0 0 0-.057-.231c.038-.065.045-.155.02-.27a.591.591 0 0 0 .018-.252.502.502 0 0 0-.019-.154c0-.116-.006-.18-.02-.193v-.04a.656.656 0 0 0 0-.23v-.078a.39.39 0 0 0 .02-.213 2.062 2.062 0 0 1-.02-.29v-.096a.178.178 0 0 0 0-.116.427.427 0 0 0-.018-.135c0-.051.006-.103.019-.154a1.203 1.203 0 0 0-.039-.27.317.317 0 0 1-.02-.097c.014-.168.02-.277.02-.329a.334.334 0 0 0-.02-.193.401.401 0 0 1-.018-.154c.012-.09.019-.168.019-.232v-.135a.634.634 0 0 0 .02-.155l-.04-.25V2.61c0-.103-.006-.206-.019-.309a3.769 3.769 0 0 0-.038-.174c0-.051.006-.11.019-.174a.634.634 0 0 0 .02-.154c0-.052.006-.09.019-.116a1.36 1.36 0 0 0 .077-.29c0-.051.006-.103.02-.154.076-.103.128-.18.154-.232a1.4 1.4 0 0 1 .212-.096.226.226 0 0 0 .058-.039h.232a.395.395 0 0 1 .174 0c.051.013.09.026.115.039.04.012.084.019.136.019L30.79.89c.039.013.077.02.116.02.039 0 .07-.013.097-.039l.193.058c0-.013.006-.02.019-.02.167.013.29.007.367-.019.116.052.18.065.193.039.013-.026.026-.026.039 0 .064.013.122.02.173.02.052 0 .097.012.136.038.09-.039.167-.045.231-.02.065.013.13.033.194.058ZM34.112 9.485a1.07 1.07 0 0 0 .077-.347c0-.09.02-.161.058-.213v-.25c.064-.155.096-.252.096-.29.026-.142.04-.22.04-.232 0-.026.006-.052.018-.078.013-.051.04-.135.078-.25.051-.155.09-.265.116-.329.025-.064.051-.122.077-.174.064-.103.096-.167.096-.193 0-.026.013-.051.039-.077a.765.765 0 0 1 .096-.116.282.282 0 0 0 .059-.174c.102-.129.193-.206.27-.232.051-.128.096-.2.135-.212.039-.026.052-.07.039-.135a.448.448 0 0 0 .116-.077.283.283 0 0 1 .135-.097c.051-.116.077-.18.077-.193a.224.224 0 0 1 .058-.039.767.767 0 0 0 .116-.096l.116-.116c.103-.065.173-.097.212-.097.129-.09.225-.148.29-.174a.234.234 0 0 0 .135-.135c.051 0 .09-.006.116-.019l.116-.039c.129-.064.2-.103.212-.116a.149.149 0 0 1 .058-.019.63.63 0 0 1 .097-.077.627.627 0 0 0 .096-.077c.077 0 .148-.02.213-.058l.231-.039c.13-.051.2-.07.213-.058.026.013.058.013.096 0a.707.707 0 0 0 .174-.038.303.303 0 0 1 .077-.058c.103-.013.22-.033.348-.058a.596.596 0 0 0 .116-.039c.039-.013.084-.026.135-.039a.81.81 0 0 0 .251 0 .981.981 0 0 1 .193-.019c.052 0 .103.007.155.02l.154.038h.232c.077 0 .161.006.251.02.052.038.103.07.155.096a1.454 1.454 0 0 1 .521.232c.154.038.27.083.348.135.128.077.206.122.231.135.026.013.052.02.078.02.167.09.29.16.367.212.077.064.135.116.173.154a.302.302 0 0 0 .078.058.486.486 0 0 1 .115.058l.174.251c.065.065.103.11.116.135.013.013.032.013.058 0 .064.103.097.168.097.194a.226.226 0 0 0 .058.038c.103.142.154.219.154.232.077.129.122.212.135.25a.45.45 0 0 1 .078.117c.038.129.064.212.077.25a.483.483 0 0 1 .058.117.33.33 0 0 1 .058.154.116.116 0 0 0 .077.077.335.335 0 0 0 .02.194 2.3 2.3 0 0 0 .077.173c0 .052.012.13.038.232.026.155.039.251.039.29.013.038.019.07.019.096.039.078.051.136.039.174 0 .026.006.058.019.097 0 .051.006.096.02.135l.038.116a3.48 3.48 0 0 1 0 .734c-.013.09-.026.16-.039.212a.637.637 0 0 1-.038.193c-.13.052-.22.09-.27.116-.09.065-.168.097-.232.097-.065 0-.116.032-.155.096-.103-.025-.16-.025-.174 0 0 .026-.013.039-.038.039a1.325 1.325 0 0 1-.251.077c-.026 0-.045.013-.058.039a.218.218 0 0 0-.155.02.43.43 0 0 1-.135.057.982.982 0 0 0-.444.058 2.862 2.862 0 0 0-.31.097c-.09.025-.186.051-.289.077a.622.622 0 0 1-.27.077 1.252 1.252 0 0 1-.27.135.238.238 0 0 0-.136.039 2.841 2.841 0 0 1-.27.116.837.837 0 0 1-.31.019.131.131 0 0 1-.096.039c-.026-.013-.064-.013-.116 0-.128.051-.193.083-.193.096h-.02a1.107 1.107 0 0 1-.192.058.517.517 0 0 0-.193.039.454.454 0 0 1-.174.058.425.425 0 0 0-.174.077.128.128 0 0 0-.116.02 1.85 1.85 0 0 1-.135.038c-.064-.039-.11-.052-.135-.039a.17.17 0 0 1-.077-.02c-.052-.05-.097-.076-.136-.076a.77.77 0 0 1-.096-.039.68.68 0 0 1-.155-.193l-.096-.097a.632.632 0 0 0-.078-.096.35.35 0 0 0-.115-.155.452.452 0 0 1-.097-.154c-.103-.09-.154-.161-.154-.213-.09-.128-.142-.2-.155-.212v-.058l-.154-.193a.65.65 0 0 1-.116-.251c-.065.154-.097.257-.097.309.013.051.02.103.02.154a.676.676 0 0 0 .077.27c-.026.026-.032.065-.02.117.013.038.02.083.02.135.013.077.019.135.019.174 0 .025.007.051.02.077l.038.232c.077.167.116.27.116.309l.038.077c.09.103.148.187.174.25l.097.213c.103.142.16.226.174.251.09.103.16.18.212.232.167.129.258.219.27.27.13.052.213.104.252.155a.478.478 0 0 1 .135.058l.077.039a.243.243 0 0 0 .096.058c.04.012.071.032.097.057.064.013.135.02.212.02.155.038.27.058.348.058a.449.449 0 0 1 .232.019c.103 0 .206-.013.309-.039a.444.444 0 0 1 .135-.038c.026 0 .051-.013.077-.039a1.47 1.47 0 0 1 .136-.02l.077-.038c.116-.064.18-.096.193-.096l.058-.058.212-.078a.59.59 0 0 0 .155-.135.243.243 0 0 1 .058-.096.682.682 0 0 1 .154-.097c.026-.013.039-.032.039-.058l.154-.058c.013-.013.032-.013.058 0 .09-.025.142-.032.155-.02.026 0 .045.007.058.02a.767.767 0 0 1 .116.097c.038.025.083.051.135.077.077.09.122.148.135.174a.226.226 0 0 0 .058.038l.096.194c.065.09.103.141.116.154.026 0 .045.013.058.039.052.129.084.2.097.212.013 0 .032.013.058.039a.65.65 0 0 0 .096.154c.039.026.071.058.097.097a.187.187 0 0 1 .077.096.63.63 0 0 0 .097.078l.096.309c.026.025.045.07.058.135a.317.317 0 0 1-.02.096.364.364 0 0 0-.019.116c-.09.142-.148.238-.173.29a.291.291 0 0 1-.116.096.68.68 0 0 1-.193.097.234.234 0 0 0-.136.155.571.571 0 0 1-.135.019c-.038 0-.058.032-.058.096-.128.052-.2.078-.212.078a.49.49 0 0 0-.232.116c-.154.051-.257.09-.309.115a1.26 1.26 0 0 1-.135.078.93.93 0 0 0-.29.038c-.141.039-.238.065-.29.078l-.154.038a2.495 2.495 0 0 1-.386.058.867.867 0 0 0-.232.039c-.039.013-.09.025-.154.038a.593.593 0 0 0-.136.039.987.987 0 0 1-.193-.02.342.342 0 0 1-.154-.038c-.18 0-.264.013-.251.039a.238.238 0 0 0-.135-.039.364.364 0 0 1-.116-.02 1.234 1.234 0 0 1-.29-.077h-.212a.693.693 0 0 1-.174-.057 1.368 1.368 0 0 1-.174-.058 1.98 1.98 0 0 0-.212-.058.15.15 0 0 1-.058-.02l-.27-.135a3.3 3.3 0 0 1-.29-.096c-.065-.052-.11-.078-.136-.078a.173.173 0 0 1-.077-.019.707.707 0 0 0-.135-.116.303.303 0 0 1-.077-.058c-.078-.077-.129-.116-.155-.116a.17.17 0 0 0-.077-.019 7.123 7.123 0 0 0-.193-.212l-.077-.078a2.33 2.33 0 0 1-.136-.173.756.756 0 0 0-.096-.116 4.063 4.063 0 0 0-.193-.232.343.343 0 0 0-.097-.097.187.187 0 0 0-.077-.096l-.077-.077-.097-.193c0-.026-.02-.033-.058-.02a.728.728 0 0 0-.174-.29.758.758 0 0 0-.077-.154v-.058a2.487 2.487 0 0 0-.135-.193 1.805 1.805 0 0 1-.212-.328.748.748 0 0 0-.078-.136.222.222 0 0 0-.058-.038c-.051-.206-.103-.329-.154-.367-.039-.052-.052-.123-.039-.213-.026-.141-.058-.231-.096-.27a.49.49 0 0 1-.058-.116v-.25a1.149 1.149 0 0 1-.02-.252l-.038-.154a3.935 3.935 0 0 1-.039-.174c0-.155.007-.238.02-.251a.514.514 0 0 1-.04-.29c.027-.129.04-.245.04-.348a1.21 1.21 0 0 0 .019-.193c0-.064.013-.116.038-.154l-.038-.097Zm6.218-1.39a.242.242 0 0 1-.058-.097.31.31 0 0 0-.038-.135.53.53 0 0 1-.155-.135.234.234 0 0 0-.154-.135c-.026-.052-.078-.084-.155-.097a.248.248 0 0 1-.154-.097.894.894 0 0 0-.174-.019.896.896 0 0 1-.174-.02c-.142-.012-.225-.012-.25 0a.778.778 0 0 0-.213.02l-.116.039a.268.268 0 0 1-.116.02c-.039-.014-.07-.014-.097 0-.154.102-.27.166-.347.192a5.355 5.355 0 0 1-.213.251c-.077.09-.122.142-.135.155a.225.225 0 0 0-.039.058c-.103.116-.167.2-.193.25-.116.142-.186.22-.212.233a1.263 1.263 0 0 0-.077.135.344.344 0 0 1-.097.096c-.051.142-.09.232-.116.27a.269.269 0 0 0-.02.117c.078-.026.155-.046.233-.058.09-.026.167-.052.231-.078a.48.48 0 0 0 .174-.019.49.49 0 0 0 .116-.058.474.474 0 0 1 .174-.039c.051-.012.122-.025.212-.038.13-.052.213-.084.251-.097.052-.013.097-.025.136-.038a.516.516 0 0 1 .193-.039.316.316 0 0 0 .173-.039c.18-.051.303-.083.367-.096.103 0 .18-.007.232-.02.142-.051.232-.077.27-.077.116-.013.213-.032.29-.058a1 1 0 0 0 .232-.135c.064-.064.084-.11.058-.135l-.039-.077ZM48.963 12.266v.174c.013.039.026.097.038.174.026.09.033.154.02.193v.116c.026.129.032.2.02.212v.135c.012.039.018.078.018.116a.24.24 0 0 1 0 .136c0 .038.007.077.02.115v.194c.013 0 .019.006.019.019a.363.363 0 0 1-.02.116v.096c0 .052.014.142.04.27v.155c0 .052.006.103.019.155l.038.386c.026.116.033.186.02.212 0 .013.006.032.019.058 0 .052.006.097.02.135a.127.127 0 0 1 .018.116.116.116 0 0 1-.077.078.49.49 0 0 0-.116.057 1.906 1.906 0 0 1-.25.116c-.014.013-.033.007-.059-.019-.025.026-.064.032-.115.02-.04-.014-.071-.014-.097 0h-.193c-.013.012-.026.019-.039.019a1.63 1.63 0 0 0-.29-.039 1.015 1.015 0 0 0-.366.02 4.673 4.673 0 0 0-.251-.02c-.013.013-.033.02-.058.02a.893.893 0 0 1-.174-.02.717.717 0 0 0-.174-.02c-.142.014-.219.02-.232.02 0 .013-.006.02-.02.02a3.581 3.581 0 0 1-.289.038 3.217 3.217 0 0 0-.27-.02.238.238 0 0 1-.135-.038.24.24 0 0 0-.136 0 .634.634 0 0 0-.154.02c-.051.012-.09-.02-.116-.097a1.283 1.283 0 0 1-.096-.232c0-.051.006-.11.019-.174l.02-.27.018-.213c.013-.051.026-.096.04-.135a.427.427 0 0 0 .018-.135c.013-.052.013-.09 0-.116v-.116c0-.09.007-.18.02-.27.013-.09.02-.187.02-.29a.722.722 0 0 0-.02-.174v-.193a1.067 1.067 0 0 0 0-.29v-.193c0-.064.006-.115.02-.154a.427.427 0 0 0 0-.251v-.367a.394.394 0 0 0 0-.174c-.04-.129-.046-.193-.02-.193s.032-.013.02-.039a1.238 1.238 0 0 0 0-.309 2.484 2.484 0 0 1-.02-.309v-.27c.013-.09.013-.187 0-.29.013-.128.006-.212-.02-.25a.489.489 0 0 0-.057-.117v-.173c.012-.065.019-.136.019-.213a.68.68 0 0 1 .02-.193.427.427 0 0 0-.02-.309.9.9 0 0 1-.02-.174 3.171 3.171 0 0 1-.019-.27v-.193c0-.116.007-.174.02-.174.012-.013.012-.026 0-.039v-.231a3.186 3.186 0 0 1-.04-.367.893.893 0 0 0 .02-.174v-.232a.218.218 0 0 0-.02-.154c0-.078-.006-.123-.018-.136v-.096c0-.116.006-.232.019-.348a3.14 3.14 0 0 0 .02-.347 1.779 1.779 0 0 1-.02-.251v-.27a.757.757 0 0 0-.02-.233.171.171 0 0 1-.019-.077v-.25c.013-.052.007-.091-.019-.117v-.25a1.336 1.336 0 0 1-.039-.271v-.174a.98.98 0 0 0-.019-.193 2.494 2.494 0 0 1-.058-.386c.013-.078.02-.155.02-.232a3.614 3.614 0 0 1-.097-.29.342.342 0 0 0-.039-.154c-.026-.142-.032-.22-.02-.232a.082.082 0 0 0 0-.077.514.514 0 0 0-.057-.232.097.097 0 0 0 0-.116.566.566 0 0 1-.02-.135v-.135c.014-.026.007-.052-.019-.078a1.609 1.609 0 0 1-.038-.173c.013-.013.019-.032.019-.058a.215.215 0 0 0-.02-.097c0-.038.007-.077.02-.116.026-.064.064-.135.116-.212a.864.864 0 0 0 .193-.077c.013-.026.032-.039.058-.039h.232a.24.24 0 0 1 .135 0c.038.013.077.02.116.02h.27c.129.025.2.038.213.038a.171.171 0 0 1 .077-.02c.154.04.25.065.29.078.038 0 .083.006.135.02.103 0 .174.006.212.019.052.012.103.019.155.019a.568.568 0 0 1 .135-.02l.174-.038.212.02h.193c.013-.014.032-.02.058-.02.065 0 .122.006.174.02l.174.038a.981.981 0 0 0 .193-.02c.077-.012.148-.019.212-.019.065 0 .129.007.193.02a1.3 1.3 0 0 0 .213.019h.483c.077 0 .135.006.173.02.052 0 .11.006.174.018h.135c.052 0 .11.007.174.02h.193a1.3 1.3 0 0 1 .213.02 4.7 4.7 0 0 0 .25.018.428.428 0 0 1 .136-.019.48.48 0 0 1 .174.02h.135c.167.025.258.038.27.038a.082.082 0 0 1 .078 0 .596.596 0 0 0 .115.039c.052.013.097.025.136.038l.116.039c.038 0 .07.02.096.058.052-.026.097-.02.135.02.039.025.09.038.155.038a.186.186 0 0 0 .096.077c.052 0 .103.013.155.039l.251.154c.142.065.232.116.27.155.052.038.11.07.174.096l.174.116c.013 0 .02-.006.02-.02l.173.175a.88.88 0 0 0 .155.135c.025.013.038.038.038.077.052.039.09.07.116.097a.218.218 0 0 1 .077.077c.052.026.09.064.116.116.039.038.084.077.135.116l.174.135c.077.141.122.231.135.27.026.026.039.052.039.077a.24.24 0 0 1 .058.097.487.487 0 0 0 .058.116c.077.193.135.328.174.405.051.065.077.11.077.136 0 .025.006.051.02.077a.73.73 0 0 1 .076.154 1.349 1.349 0 0 0 .116.251l.078.213a.238.238 0 0 1 .038.135.487.487 0 0 0 .058.116l.077.347a.61.61 0 0 1 .02.252c0 .038.013.09.038.154.013.155.02.251.02.29.013.025.013.058 0 .096a.6.6 0 0 0 .038.251.275.275 0 0 0-.038.155.98.98 0 0 1 .019.193.427.427 0 0 1-.02.135v.097c-.025.141-.025.238 0 .29a1.012 1.012 0 0 0-.057.231c0 .09-.013.167-.039.232a.238.238 0 0 0-.038.135c0 .052-.007.11-.02.174-.051.141-.084.212-.096.212v.02c-.116.154-.18.264-.194.328 0 .051-.032.09-.096.116a.207.207 0 0 1-.039.116.633.633 0 0 1-.077.096.73.73 0 0 0-.077.155.148.148 0 0 1-.02.058l-.154.154c-.103.129-.18.219-.232.27l-.135.194-.154.173c-.168.103-.27.18-.31.232a2.693 2.693 0 0 0-.212.193c-.116.103-.193.161-.232.174-.025.013-.045.039-.058.077-.128.065-.212.11-.25.136a.637.637 0 0 0-.097.077.238.238 0 0 0-.135.038.754.754 0 0 1-.097.04.416.416 0 0 0-.251.115 1.342 1.342 0 0 1-.232.058.171.171 0 0 0-.077.02c-.116.05-.206.09-.27.115a.247.247 0 0 0-.155.097c-.116.012-.187.019-.212.019-.026 0-.039.013-.039.038h-.174c0-.012-.013-.019-.038-.019a2.45 2.45 0 0 0-.367.078h-.193a.162.162 0 0 0-.136.019 1.074 1.074 0 0 1-.231.077.317.317 0 0 0-.078.02 3.634 3.634 0 0 1-.29.038.238.238 0 0 0-.134.039.178.178 0 0 1-.116 0c-.103.012-.18.025-.232.038a.597.597 0 0 0-.116.039.79.79 0 0 0-.251 0 1.07 1.07 0 0 0-.27.058l-.174-.039Zm.25-2.105c.22-.026.349-.045.387-.058l.348-.058.212-.135a.629.629 0 0 1 .174-.058.21.21 0 0 0 .077-.038l.174-.174a.266.266 0 0 0 .058-.135c.142-.065.2-.103.174-.116-.013-.013-.007-.026.02-.039.115-.103.205-.16.27-.174.115-.103.173-.16.173-.174l.058-.058c.103-.115.161-.173.174-.173l.039-.039c.103-.103.154-.167.154-.193.026-.039.077-.097.155-.174.128-.064.2-.11.212-.135a.633.633 0 0 1 .077-.097 1.55 1.55 0 0 0 .194-.212 8.564 8.564 0 0 0 .174-.309c.05-.077.077-.129.077-.155 0-.038.006-.077.019-.115a.736.736 0 0 1 .038-.097.364.364 0 0 0 .02-.116.394.394 0 0 0 0-.174v-.193a1.06 1.06 0 0 0 .038-.232.364.364 0 0 0-.019-.115.749.749 0 0 0-.038-.097.604.604 0 0 0-.04-.135.364.364 0 0 1-.019-.116c-.077-.142-.122-.212-.135-.212-.012-.013-.019-.033-.019-.058l-.135-.194a1.952 1.952 0 0 1-.135-.193.126.126 0 0 0-.058-.058l-.078-.154c0-.026-.006-.045-.019-.058a1.515 1.515 0 0 0-.193-.155 1.636 1.636 0 0 0-.116-.193.66.66 0 0 0-.135-.135.857.857 0 0 1-.077-.154c-.078-.013-.135-.065-.174-.155a.524.524 0 0 0-.174-.077l-.039-.039a1.054 1.054 0 0 0-.173-.174.186.186 0 0 1-.078-.096.13.13 0 0 1-.115-.058c-.026-.039-.052-.052-.078-.039l-.193-.173c-.116-.078-.187-.116-.212-.116a.149.149 0 0 1-.058-.02c-.167-.167-.354-.244-.56-.231-.193 0-.354-.02-.483-.058a1.744 1.744 0 0 0-.174.116c-.013 0-.02.006-.02.019a.637.637 0 0 0-.038.193c.013.039.02.084.02.135V4c.012.04.019.078.019.116a1.197 1.197 0 0 1-.039.27c-.013.014-.02.033-.02.059 0 .154.007.29.02.405.013.103.007.174-.02.213v.27c.014.142.014.219 0 .232v.02c.014.09.007.16-.018.212v.482a.945.945 0 0 1 0 .27l-.039.31v.347c-.026.18-.045.322-.058.425a.45.45 0 0 0 .02.232v.251c.025.155.025.29 0 .406 0 .077-.007.16-.02.25 0 .078.006.155.02.232 0 .065.006.123.019.174.012.052.019.11.019.174v.251l.039.29c.012.09.012.186 0 .29a.282.282 0 0 0 .173.019l.155-.039ZM63.64 8.049c-2.998 0-5.22 2.936-5.22 5.54 0 1.053.334 1.773 1.111 2.161.777.388 1.888.388 3.276.388h2.444c1.943 0 3.609-.222 3.609-2.549 0-2.66-2.221-5.54-5.22-5.54ZM59.753 8.104c0-.775-.61-1.662-1.388-1.662-.778 0-1.388.887-1.388 1.662 0 .776.61 1.386 1.388 1.386.777-.056 1.388-.665 1.388-1.386ZM61.697 7.717c.888 0 1.61-.72 1.61-1.607 0-.886-.722-1.94-1.61-1.94-.889 0-1.61 1.054-1.61 1.94-.056.887.666 1.607 1.61 1.607ZM68.915 6.442c-.777 0-1.388.887-1.388 1.662 0 .776.611 1.386 1.388 1.386.778 0 1.389-.61 1.389-1.386 0-.775-.611-1.662-1.389-1.662ZM65.584 7.717c.888 0 1.61-.72 1.61-1.607 0-.886-.722-1.94-1.61-1.94-.944 0-1.61 1.054-1.61 1.94a1.61 1.61 0 0 0 1.61 1.607Z" fill="#6D7D8A"></path></svg> 